<svg xmlns="http://www.w3.org/2000/svg" width="1367.758" height="357.717" viewBox="0 0 1367.758 357.717"><g transform="translate(-47.473 -92.283)"><path d="M-12.22-7.99A25.109,25.109,0,0,1-13.1-5.573a8.661,8.661,0,0,0-2.747-1.318q-.989-.22-2.307-.549,3.406-2.307,6.372-4.614A9.8,9.8,0,0,1-12.22-7.99ZM-18.043.8A10.335,10.335,0,0,0-20.13-.52l-1.209-.659-1.208-.659q-1.1-.439-2.527-.989l4.834-3.186a14.139,14.139,0,0,1,1.868.33q1.209.22,2.087.439a6.464,6.464,0,0,1,1.648.659q.659.33.549.549l.22-.11A20.531,20.531,0,0,1-18.043.8Zm-16.37,4.175a24.355,24.355,0,0,1-2.417-.989l3.186-1.758.769.22.879.22A42.28,42.28,0,0,1-27.382,4.2a15.053,15.053,0,0,1,1.538.769A16.983,16.983,0,0,1-34.413,4.974Zm1.538-14.612q.989,1.648-.33,5.713l-.549,1.758A12.9,12.9,0,0,1-34.3-.63l-.33.659-.22.439-.11.22V.8l-.11.33-2.857,1.318a21.866,21.866,0,0,1,.769-5.164A14.873,14.873,0,0,1-32.875-9.638Zm1.209-.989A15.728,15.728,0,0,1-25.4-13.264,11.17,11.17,0,0,1-26.5-8.21l-.659,1.758a6.953,6.953,0,0,1-.659,1.538,8.529,8.529,0,0,1-.439,1.1l-.11.33-.11.11-.33.879h.11Q-30.568-1.289-32.655-.19a28.976,28.976,0,0,0,1.1-3.3,19.876,19.876,0,0,0,.769-3.735,5.969,5.969,0,0,0-.769-3.516Zm2.527,12.415q-1.1-.33-2.417-.769l4.724-2.747,1.538.659q1.1.439,1.978.769a25.267,25.267,0,0,1,3.955,2.2,25.09,25.09,0,0,1-4.5,2.527,12.4,12.4,0,0,0-2.856-1.758Q-27.821,2.227-29.139,1.787Zm9.229-15.6-.22.11v.659q-.11.549-.22,1.209-.22.659-.549,1.538-.33.659-.659,1.428l-.22.659-.22.439-.22.33v.11l-.549.989-3.516,2.307q.33-.769.659-1.648.439-.989.769-1.978,1.318-4.175,1.1-5.933l1.1-.11Q-21.339-13.813-19.911-13.813Zm6.372.549q-3.3,2.637-6.262,4.724.659-1.648,1.1-2.856a9.156,9.156,0,0,0,.33-2.087v-.33A36.18,36.18,0,0,1-13.539-13.264Zm3.186-1.1-.549-.11-.11-.11h-.11l-.33-.11h-.439q-1.318-.33-2.637-.549a35.569,35.569,0,0,0-8.35-.11,19.559,19.559,0,0,0-9.339,2.966,15.939,15.939,0,0,0-6.592,9.119,28.3,28.3,0,0,0-.879,6.482A25.085,25.085,0,0,0-43.2,5.193q-1.208.989-1.208,1.538,0,.659,1.318.22A16.391,16.391,0,0,0-38.7,5.083a23.374,23.374,0,0,0,3.845,1.538q9.778,2.747,17.908-4.395a19.7,19.7,0,0,0,6.372-9.668,13.191,13.191,0,0,0,.33-6.482Z" transform="translate(948.083 96.847) rotate(-43)" fill="rgba(255,255,255,0.15)"/><path d="M17.05-1.12A47.94,47.94,0,0,1,15.372,3.5,16.536,16.536,0,0,0,10.128.978Q8.24.558,5.723-.071q6.5-4.405,12.166-8.81A18.707,18.707,0,0,1,17.05-1.12ZM5.933,15.661a19.732,19.732,0,0,0-3.986-2.517L-.36,11.886l-2.307-1.259q-2.1-.839-4.825-1.888l9.23-6.083A27,27,0,0,1,5.3,3.285q2.307.42,3.986.839a12.342,12.342,0,0,1,3.146,1.259q1.259.629,1.049,1.049l.42-.21A39.2,39.2,0,0,1,5.933,15.661Zm-31.255,7.971a46.5,46.5,0,0,1-4.615-1.888l6.083-3.356,1.468.42,1.678.42a80.724,80.724,0,0,1,8.81,2.937,28.741,28.741,0,0,1,2.937,1.468A32.425,32.425,0,0,1-25.322,23.632Zm2.937-27.9Q-20.5-1.12-23.015,6.642L-24.064,10a24.636,24.636,0,0,1-1.049,2.937l-.629,1.259-.42.839-.21.42v.21l-.21.629-5.454,2.517a41.748,41.748,0,0,1,1.468-9.859A28.4,28.4,0,0,1-22.385-4.266Zm2.307-1.888A30.029,30.029,0,0,1-8.121-11.188q.42,3.356-2.1,9.649l-1.259,3.356a13.276,13.276,0,0,1-1.259,2.937,16.285,16.285,0,0,1-.839,2.1l-.21.629-.21.21-.629,1.678h.21q-3.566,2.307-7.552,4.405a55.323,55.323,0,0,0,2.1-6.293A37.95,37.95,0,0,0-18.4.349a11.4,11.4,0,0,0-1.468-6.712Zm4.824,23.7q-2.1-.629-4.615-1.468l9.02-5.244L-7.912,12.1q2.1.839,3.776,1.468a48.241,48.241,0,0,1,7.551,4.2,47.9,47.9,0,0,1-8.6,4.825,23.67,23.67,0,0,0-5.454-3.356Q-12.736,18.388-15.253,17.549ZM2.367-12.237l-.42.21v1.259q-.21,1.049-.42,2.307Q1.108-7.2.479-5.525-.15-4.266-.78-2.8L-1.2-1.539l-.42.839-.42.629v.21L-3.087,2.027-9.8,6.432q.629-1.468,1.259-3.146Q-7.7,1.4-7.073-.49q2.517-7.971,2.1-11.327l2.1-.21Q-.36-12.237,2.367-12.237Zm12.166,1.049Q8.24-6.154,2.576-2.169q1.259-3.146,2.1-5.454A17.482,17.482,0,0,0,5.3-11.608v-.629A69.079,69.079,0,0,1,14.533-11.188Zm6.083-2.1-1.049-.21-.21-.21h-.21l-.629-.21h-.839q-2.517-.629-5.034-1.049A67.911,67.911,0,0,0-3.3-15.174,37.344,37.344,0,0,0-21.127-9.51,30.432,30.432,0,0,0-33.713,7.9a54.032,54.032,0,0,0-1.678,12.376A47.9,47.9,0,0,0-42.1,24.052q-2.307,1.888-2.307,2.937,0,1.259,2.517.42A31.3,31.3,0,0,0-33.5,23.842a44.627,44.627,0,0,0,7.342,2.937Q-7.492,32.023,8.03,18.388A37.6,37.6,0,0,0,20.2-.071a25.185,25.185,0,0,0,.629-12.376Z" transform="translate(576.347 143.968) rotate(-17)" fill="rgba(255,255,255,0.15)"/><path d="M17.05-1.12A47.94,47.94,0,0,1,15.372,3.5,16.536,16.536,0,0,0,10.128.978Q8.24.558,5.723-.071q6.5-4.405,12.166-8.81A18.707,18.707,0,0,1,17.05-1.12ZM5.933,15.661a19.732,19.732,0,0,0-3.986-2.517L-.36,11.886l-2.307-1.259q-2.1-.839-4.825-1.888l9.23-6.083A27,27,0,0,1,5.3,3.285q2.307.42,3.986.839a12.342,12.342,0,0,1,3.146,1.259q1.259.629,1.049,1.049l.42-.21A39.2,39.2,0,0,1,5.933,15.661Zm-31.255,7.971a46.5,46.5,0,0,1-4.615-1.888l6.083-3.356,1.468.42,1.678.42a80.724,80.724,0,0,1,8.81,2.937,28.741,28.741,0,0,1,2.937,1.468A32.425,32.425,0,0,1-25.322,23.632Zm2.937-27.9Q-20.5-1.12-23.015,6.642L-24.064,10a24.636,24.636,0,0,1-1.049,2.937l-.629,1.259-.42.839-.21.42v.21l-.21.629-5.454,2.517a41.748,41.748,0,0,1,1.468-9.859A28.4,28.4,0,0,1-22.385-4.266Zm2.307-1.888A30.029,30.029,0,0,1-8.121-11.188q.42,3.356-2.1,9.649l-1.259,3.356a13.276,13.276,0,0,1-1.259,2.937,16.285,16.285,0,0,1-.839,2.1l-.21.629-.21.21-.629,1.678h.21q-3.566,2.307-7.552,4.405a55.323,55.323,0,0,0,2.1-6.293A37.95,37.95,0,0,0-18.4.349a11.4,11.4,0,0,0-1.468-6.712Zm4.824,23.7q-2.1-.629-4.615-1.468l9.02-5.244L-7.912,12.1q2.1.839,3.776,1.468a48.241,48.241,0,0,1,7.551,4.2,47.9,47.9,0,0,1-8.6,4.825,23.67,23.67,0,0,0-5.454-3.356Q-12.736,18.388-15.253,17.549ZM2.367-12.237l-.42.21v1.259q-.21,1.049-.42,2.307Q1.108-7.2.479-5.525-.15-4.266-.78-2.8L-1.2-1.539l-.42.839-.42.629v.21L-3.087,2.027-9.8,6.432q.629-1.468,1.259-3.146Q-7.7,1.4-7.073-.49q2.517-7.971,2.1-11.327l2.1-.21Q-.36-12.237,2.367-12.237Zm12.166,1.049Q8.24-6.154,2.576-2.169q1.259-3.146,2.1-5.454A17.482,17.482,0,0,0,5.3-11.608v-.629A69.079,69.079,0,0,1,14.533-11.188Zm6.083-2.1-1.049-.21-.21-.21h-.21l-.629-.21h-.839q-2.517-.629-5.034-1.049A67.911,67.911,0,0,0-3.3-15.174,37.344,37.344,0,0,0-21.127-9.51,30.432,30.432,0,0,0-33.713,7.9a54.032,54.032,0,0,0-1.678,12.376A47.9,47.9,0,0,0-42.1,24.052q-2.307,1.888-2.307,2.937,0,1.259,2.517.42A31.3,31.3,0,0,0-33.5,23.842a44.627,44.627,0,0,0,7.342,2.937Q-7.492,32.023,8.03,18.388A37.6,37.6,0,0,0,20.2-.071a25.185,25.185,0,0,0,.629-12.376Z" transform="translate(69.775 295.499) rotate(-81)" fill="rgba(255,255,255,0.15)"/><path d="M17.05-1.12A47.94,47.94,0,0,1,15.372,3.5,16.536,16.536,0,0,0,10.128.978Q8.24.558,5.723-.071q6.5-4.405,12.166-8.81A18.707,18.707,0,0,1,17.05-1.12ZM5.933,15.661a19.732,19.732,0,0,0-3.986-2.517L-.36,11.886l-2.307-1.259q-2.1-.839-4.825-1.888l9.23-6.083A27,27,0,0,1,5.3,3.285q2.307.42,3.986.839a12.342,12.342,0,0,1,3.146,1.259q1.259.629,1.049,1.049l.42-.21A39.2,39.2,0,0,1,5.933,15.661Zm-31.255,7.971a46.5,46.5,0,0,1-4.615-1.888l6.083-3.356,1.468.42,1.678.42a80.724,80.724,0,0,1,8.81,2.937,28.741,28.741,0,0,1,2.937,1.468A32.425,32.425,0,0,1-25.322,23.632Zm2.937-27.9Q-20.5-1.12-23.015,6.642L-24.064,10a24.636,24.636,0,0,1-1.049,2.937l-.629,1.259-.42.839-.21.42v.21l-.21.629-5.454,2.517a41.748,41.748,0,0,1,1.468-9.859A28.4,28.4,0,0,1-22.385-4.266Zm2.307-1.888A30.029,30.029,0,0,1-8.121-11.188q.42,3.356-2.1,9.649l-1.259,3.356a13.276,13.276,0,0,1-1.259,2.937,16.285,16.285,0,0,1-.839,2.1l-.21.629-.21.21-.629,1.678h.21q-3.566,2.307-7.552,4.405a55.323,55.323,0,0,0,2.1-6.293A37.95,37.95,0,0,0-18.4.349a11.4,11.4,0,0,0-1.468-6.712Zm4.824,23.7q-2.1-.629-4.615-1.468l9.02-5.244L-7.912,12.1q2.1.839,3.776,1.468a48.241,48.241,0,0,1,7.551,4.2,47.9,47.9,0,0,1-8.6,4.825,23.67,23.67,0,0,0-5.454-3.356Q-12.736,18.388-15.253,17.549ZM2.367-12.237l-.42.21v1.259q-.21,1.049-.42,2.307Q1.108-7.2.479-5.525-.15-4.266-.78-2.8L-1.2-1.539l-.42.839-.42.629v.21L-3.087,2.027-9.8,6.432q.629-1.468,1.259-3.146Q-7.7,1.4-7.073-.49q2.517-7.971,2.1-11.327l2.1-.21Q-.36-12.237,2.367-12.237Zm12.166,1.049Q8.24-6.154,2.576-2.169q1.259-3.146,2.1-5.454A17.482,17.482,0,0,0,5.3-11.608v-.629A69.079,69.079,0,0,1,14.533-11.188Zm6.083-2.1-1.049-.21-.21-.21h-.21l-.629-.21h-.839q-2.517-.629-5.034-1.049A67.911,67.911,0,0,0-3.3-15.174,37.344,37.344,0,0,0-21.127-9.51,30.432,30.432,0,0,0-33.713,7.9a54.032,54.032,0,0,0-1.678,12.376A47.9,47.9,0,0,0-42.1,24.052q-2.307,1.888-2.307,2.937,0,1.259,2.517.42A31.3,31.3,0,0,0-33.5,23.842a44.627,44.627,0,0,0,7.342,2.937Q-7.492,32.023,8.03,18.388A37.6,37.6,0,0,0,20.2-.071a25.185,25.185,0,0,0,.629-12.376Z" transform="translate(1326.819 311.954) rotate(179)" fill="rgba(255,255,255,0.15)"/><path d="M-7.706-6.931a28.63,28.63,0,0,1-1,2.756,9.875,9.875,0,0,0-3.132-1.5q-1.127-.251-2.631-.626,3.883-2.631,7.266-5.261A11.172,11.172,0,0,1-7.706-6.931ZM-14.345,3.091a11.784,11.784,0,0,0-2.38-1.5L-18.1.836-19.481.084q-1.253-.5-2.881-1.127l5.512-3.633a16.121,16.121,0,0,1,2.13.376q1.378.251,2.38.5a7.371,7.371,0,0,1,1.879.752q.752.376.626.626l.251-.125A23.411,23.411,0,0,1-14.345,3.091Zm-18.666,4.76a27.771,27.771,0,0,1-2.756-1.127l3.633-2,.877.251,1,.251a48.209,48.209,0,0,1,5.261,1.754,17.164,17.164,0,0,1,1.754.877A19.364,19.364,0,0,1-33.011,7.851ZM-31.257-8.81q1.127,1.879-.376,6.514l-.626,2a14.712,14.712,0,0,1-.626,1.754l-.376.752-.251.5-.125.251v.125l-.125.376-3.257,1.5a24.932,24.932,0,0,1,.877-5.888A16.959,16.959,0,0,1-31.257-8.81Zm1.378-1.127a17.933,17.933,0,0,1,7.14-3.007,12.737,12.737,0,0,1-1.253,5.763l-.752,2a7.928,7.928,0,0,1-.752,1.754A9.725,9.725,0,0,1-26-2.17l-.125.376-.125.125-.376,1h.125q-2.13,1.378-4.51,2.631a33.039,33.039,0,0,0,1.253-3.758,22.664,22.664,0,0,0,.877-4.259,6.806,6.806,0,0,0-.877-4.009ZM-27,4.218q-1.253-.376-2.756-.877L-24.367.21l1.754.752q1.253.5,2.255.877a28.81,28.81,0,0,1,4.51,2.505,28.609,28.609,0,0,1-5.136,2.881,14.136,14.136,0,0,0-3.257-2Q-25.494,4.72-27,4.218ZM-16.475-13.57l-.251.125v.752q-.125.626-.251,1.378-.251.752-.626,1.754-.376.752-.752,1.629l-.251.752-.251.5-.251.376v.125l-.626,1.127-4.009,2.631q.376-.877.752-1.879.5-1.127.877-2.255,1.5-4.76,1.253-6.765l1.253-.125Q-18.1-13.57-16.475-13.57Zm7.266.626q-3.758,3.007-7.141,5.387.752-1.879,1.253-3.257a10.44,10.44,0,0,0,.376-2.38v-.376A41.254,41.254,0,0,1-9.209-12.944ZM-5.576-14.2l-.626-.125-.125-.125h-.125l-.376-.125h-.5q-1.5-.376-3.007-.626a40.557,40.557,0,0,0-9.521-.125,22.3,22.3,0,0,0-10.648,3.382,18.174,18.174,0,0,0-7.516,10.4,32.269,32.269,0,0,0-1,7.391A28.6,28.6,0,0,0-43.033,8.1q-1.378,1.127-1.378,1.754,0,.752,1.5.251A18.69,18.69,0,0,0-37.9,7.977,26.651,26.651,0,0,0-33.512,9.73q11.149,3.132,20.419-5.011A22.457,22.457,0,0,0-5.827-6.3,15.04,15.04,0,0,0-5.451-13.7Z" transform="translate(1131.687 206.941) rotate(30)" fill="rgba(255,255,255,0.15)"/><path d="M-7.706-6.931a28.63,28.63,0,0,1-1,2.756,9.875,9.875,0,0,0-3.132-1.5q-1.127-.251-2.631-.626,3.883-2.631,7.266-5.261A11.172,11.172,0,0,1-7.706-6.931ZM-14.345,3.091a11.784,11.784,0,0,0-2.38-1.5L-18.1.836-19.481.084q-1.253-.5-2.881-1.127l5.512-3.633a16.121,16.121,0,0,1,2.13.376q1.378.251,2.38.5a7.371,7.371,0,0,1,1.879.752q.752.376.626.626l.251-.125A23.411,23.411,0,0,1-14.345,3.091Zm-18.666,4.76a27.771,27.771,0,0,1-2.756-1.127l3.633-2,.877.251,1,.251a48.209,48.209,0,0,1,5.261,1.754,17.164,17.164,0,0,1,1.754.877A19.364,19.364,0,0,1-33.011,7.851ZM-31.257-8.81q1.127,1.879-.376,6.514l-.626,2a14.712,14.712,0,0,1-.626,1.754l-.376.752-.251.5-.125.251v.125l-.125.376-3.257,1.5a24.932,24.932,0,0,1,.877-5.888A16.959,16.959,0,0,1-31.257-8.81Zm1.378-1.127a17.933,17.933,0,0,1,7.14-3.007,12.737,12.737,0,0,1-1.253,5.763l-.752,2a7.928,7.928,0,0,1-.752,1.754A9.725,9.725,0,0,1-26-2.17l-.125.376-.125.125-.376,1h.125q-2.13,1.378-4.51,2.631a33.039,33.039,0,0,0,1.253-3.758,22.664,22.664,0,0,0,.877-4.259,6.806,6.806,0,0,0-.877-4.009ZM-27,4.218q-1.253-.376-2.756-.877L-24.367.21l1.754.752q1.253.5,2.255.877a28.81,28.81,0,0,1,4.51,2.505,28.609,28.609,0,0,1-5.136,2.881,14.136,14.136,0,0,0-3.257-2Q-25.494,4.72-27,4.218ZM-16.475-13.57l-.251.125v.752q-.125.626-.251,1.378-.251.752-.626,1.754-.376.752-.752,1.629l-.251.752-.251.5-.251.376v.125l-.626,1.127-4.009,2.631q.376-.877.752-1.879.5-1.127.877-2.255,1.5-4.76,1.253-6.765l1.253-.125Q-18.1-13.57-16.475-13.57Zm7.266.626q-3.758,3.007-7.141,5.387.752-1.879,1.253-3.257a10.44,10.44,0,0,0,.376-2.38v-.376A41.254,41.254,0,0,1-9.209-12.944ZM-5.576-14.2l-.626-.125-.125-.125h-.125l-.376-.125h-.5q-1.5-.376-3.007-.626a40.557,40.557,0,0,0-9.521-.125,22.3,22.3,0,0,0-10.648,3.382,18.174,18.174,0,0,0-7.516,10.4,32.269,32.269,0,0,0-1,7.391A28.6,28.6,0,0,0-43.033,8.1q-1.378,1.127-1.378,1.754,0,.752,1.5.251A18.69,18.69,0,0,0-37.9,7.977,26.651,26.651,0,0,0-33.512,9.73q11.149,3.132,20.419-5.011A22.457,22.457,0,0,0-5.827-6.3,15.04,15.04,0,0,0-5.451-13.7Z" transform="matrix(-0.017, -1, 1, -0.017, 1293.626, 124.589)" fill="rgba(255,255,255,0.15)"/><path d="M-7.706-6.931a28.63,28.63,0,0,1-1,2.756,9.875,9.875,0,0,0-3.132-1.5q-1.127-.251-2.631-.626,3.883-2.631,7.266-5.261A11.172,11.172,0,0,1-7.706-6.931ZM-14.345,3.091a11.784,11.784,0,0,0-2.38-1.5L-18.1.836-19.481.084q-1.253-.5-2.881-1.127l5.512-3.633a16.121,16.121,0,0,1,2.13.376q1.378.251,2.38.5a7.371,7.371,0,0,1,1.879.752q.752.376.626.626l.251-.125A23.411,23.411,0,0,1-14.345,3.091Zm-18.666,4.76a27.771,27.771,0,0,1-2.756-1.127l3.633-2,.877.251,1,.251a48.209,48.209,0,0,1,5.261,1.754,17.164,17.164,0,0,1,1.754.877A19.364,19.364,0,0,1-33.011,7.851ZM-31.257-8.81q1.127,1.879-.376,6.514l-.626,2a14.712,14.712,0,0,1-.626,1.754l-.376.752-.251.5-.125.251v.125l-.125.376-3.257,1.5a24.932,24.932,0,0,1,.877-5.888A16.959,16.959,0,0,1-31.257-8.81Zm1.378-1.127a17.933,17.933,0,0,1,7.14-3.007,12.737,12.737,0,0,1-1.253,5.763l-.752,2a7.928,7.928,0,0,1-.752,1.754A9.725,9.725,0,0,1-26-2.17l-.125.376-.125.125-.376,1h.125q-2.13,1.378-4.51,2.631a33.039,33.039,0,0,0,1.253-3.758,22.664,22.664,0,0,0,.877-4.259,6.806,6.806,0,0,0-.877-4.009ZM-27,4.218q-1.253-.376-2.756-.877L-24.367.21l1.754.752q1.253.5,2.255.877a28.81,28.81,0,0,1,4.51,2.505,28.609,28.609,0,0,1-5.136,2.881,14.136,14.136,0,0,0-3.257-2Q-25.494,4.72-27,4.218ZM-16.475-13.57l-.251.125v.752q-.125.626-.251,1.378-.251.752-.626,1.754-.376.752-.752,1.629l-.251.752-.251.5-.251.376v.125l-.626,1.127-4.009,2.631q.376-.877.752-1.879.5-1.127.877-2.255,1.5-4.76,1.253-6.765l1.253-.125Q-18.1-13.57-16.475-13.57Zm7.266.626q-3.758,3.007-7.141,5.387.752-1.879,1.253-3.257a10.44,10.44,0,0,0,.376-2.38v-.376A41.254,41.254,0,0,1-9.209-12.944ZM-5.576-14.2l-.626-.125-.125-.125h-.125l-.376-.125h-.5q-1.5-.376-3.007-.626a40.557,40.557,0,0,0-9.521-.125,22.3,22.3,0,0,0-10.648,3.382,18.174,18.174,0,0,0-7.516,10.4,32.269,32.269,0,0,0-1,7.391A28.6,28.6,0,0,0-43.033,8.1q-1.378,1.127-1.378,1.754,0,.752,1.5.251A18.69,18.69,0,0,0-37.9,7.977,26.651,26.651,0,0,0-33.512,9.73q11.149,3.132,20.419-5.011A22.457,22.457,0,0,0-5.827-6.3,15.04,15.04,0,0,0-5.451-13.7Z" transform="translate(233.546 388.234) rotate(-33)" fill="rgba(255,255,255,0.15)"/><path d="M-7.706-6.931a28.63,28.63,0,0,1-1,2.756,9.875,9.875,0,0,0-3.132-1.5q-1.127-.251-2.631-.626,3.883-2.631,7.266-5.261A11.172,11.172,0,0,1-7.706-6.931ZM-14.345,3.091a11.784,11.784,0,0,0-2.38-1.5L-18.1.836-19.481.084q-1.253-.5-2.881-1.127l5.512-3.633a16.121,16.121,0,0,1,2.13.376q1.378.251,2.38.5a7.371,7.371,0,0,1,1.879.752q.752.376.626.626l.251-.125A23.411,23.411,0,0,1-14.345,3.091Zm-18.666,4.76a27.771,27.771,0,0,1-2.756-1.127l3.633-2,.877.251,1,.251a48.209,48.209,0,0,1,5.261,1.754,17.164,17.164,0,0,1,1.754.877A19.364,19.364,0,0,1-33.011,7.851ZM-31.257-8.81q1.127,1.879-.376,6.514l-.626,2a14.712,14.712,0,0,1-.626,1.754l-.376.752-.251.5-.125.251v.125l-.125.376-3.257,1.5a24.932,24.932,0,0,1,.877-5.888A16.959,16.959,0,0,1-31.257-8.81Zm1.378-1.127a17.933,17.933,0,0,1,7.14-3.007,12.737,12.737,0,0,1-1.253,5.763l-.752,2a7.928,7.928,0,0,1-.752,1.754A9.725,9.725,0,0,1-26-2.17l-.125.376-.125.125-.376,1h.125q-2.13,1.378-4.51,2.631a33.039,33.039,0,0,0,1.253-3.758,22.664,22.664,0,0,0,.877-4.259,6.806,6.806,0,0,0-.877-4.009ZM-27,4.218q-1.253-.376-2.756-.877L-24.367.21l1.754.752q1.253.5,2.255.877a28.81,28.81,0,0,1,4.51,2.505,28.609,28.609,0,0,1-5.136,2.881,14.136,14.136,0,0,0-3.257-2Q-25.494,4.72-27,4.218ZM-16.475-13.57l-.251.125v.752q-.125.626-.251,1.378-.251.752-.626,1.754-.376.752-.752,1.629l-.251.752-.251.5-.251.376v.125l-.626,1.127-4.009,2.631q.376-.877.752-1.879.5-1.127.877-2.255,1.5-4.76,1.253-6.765l1.253-.125Q-18.1-13.57-16.475-13.57Zm7.266.626q-3.758,3.007-7.141,5.387.752-1.879,1.253-3.257a10.44,10.44,0,0,0,.376-2.38v-.376A41.254,41.254,0,0,1-9.209-12.944ZM-5.576-14.2l-.626-.125-.125-.125h-.125l-.376-.125h-.5q-1.5-.376-3.007-.626a40.557,40.557,0,0,0-9.521-.125,22.3,22.3,0,0,0-10.648,3.382,18.174,18.174,0,0,0-7.516,10.4,32.269,32.269,0,0,0-1,7.391A28.6,28.6,0,0,0-43.033,8.1q-1.378,1.127-1.378,1.754,0,.752,1.5.251A18.69,18.69,0,0,0-37.9,7.977,26.651,26.651,0,0,0-33.512,9.73q11.149,3.132,20.419-5.011A22.457,22.457,0,0,0-5.827-6.3,15.04,15.04,0,0,0-5.451-13.7Z" transform="matrix(-0.956, 0.292, -0.292, -0.956, 287.984, 200.289)" fill="rgba(255,255,255,0.15)"/><path d="M-7.706-6.931a28.63,28.63,0,0,1-1,2.756,9.875,9.875,0,0,0-3.132-1.5q-1.127-.251-2.631-.626,3.883-2.631,7.266-5.261A11.172,11.172,0,0,1-7.706-6.931ZM-14.345,3.091a11.784,11.784,0,0,0-2.38-1.5L-18.1.836-19.481.084q-1.253-.5-2.881-1.127l5.512-3.633a16.121,16.121,0,0,1,2.13.376q1.378.251,2.38.5a7.371,7.371,0,0,1,1.879.752q.752.376.626.626l.251-.125A23.411,23.411,0,0,1-14.345,3.091Zm-18.666,4.76a27.771,27.771,0,0,1-2.756-1.127l3.633-2,.877.251,1,.251a48.209,48.209,0,0,1,5.261,1.754,17.164,17.164,0,0,1,1.754.877A19.364,19.364,0,0,1-33.011,7.851ZM-31.257-8.81q1.127,1.879-.376,6.514l-.626,2a14.712,14.712,0,0,1-.626,1.754l-.376.752-.251.5-.125.251v.125l-.125.376-3.257,1.5a24.932,24.932,0,0,1,.877-5.888A16.959,16.959,0,0,1-31.257-8.81Zm1.378-1.127a17.933,17.933,0,0,1,7.14-3.007,12.737,12.737,0,0,1-1.253,5.763l-.752,2a7.928,7.928,0,0,1-.752,1.754A9.725,9.725,0,0,1-26-2.17l-.125.376-.125.125-.376,1h.125q-2.13,1.378-4.51,2.631a33.039,33.039,0,0,0,1.253-3.758,22.664,22.664,0,0,0,.877-4.259,6.806,6.806,0,0,0-.877-4.009ZM-27,4.218q-1.253-.376-2.756-.877L-24.367.21l1.754.752q1.253.5,2.255.877a28.81,28.81,0,0,1,4.51,2.505,28.609,28.609,0,0,1-5.136,2.881,14.136,14.136,0,0,0-3.257-2Q-25.494,4.72-27,4.218ZM-16.475-13.57l-.251.125v.752q-.125.626-.251,1.378-.251.752-.626,1.754-.376.752-.752,1.629l-.251.752-.251.5-.251.376v.125l-.626,1.127-4.009,2.631q.376-.877.752-1.879.5-1.127.877-2.255,1.5-4.76,1.253-6.765l1.253-.125Q-18.1-13.57-16.475-13.57Zm7.266.626q-3.758,3.007-7.141,5.387.752-1.879,1.253-3.257a10.44,10.44,0,0,0,.376-2.38v-.376A41.254,41.254,0,0,1-9.209-12.944ZM-5.576-14.2l-.626-.125-.125-.125h-.125l-.376-.125h-.5q-1.5-.376-3.007-.626a40.557,40.557,0,0,0-9.521-.125,22.3,22.3,0,0,0-10.648,3.382,18.174,18.174,0,0,0-7.516,10.4,32.269,32.269,0,0,0-1,7.391A28.6,28.6,0,0,0-43.033,8.1q-1.378,1.127-1.378,1.754,0,.752,1.5.251A18.69,18.69,0,0,0-37.9,7.977,26.651,26.651,0,0,0-33.512,9.73q11.149,3.132,20.419-5.011A22.457,22.457,0,0,0-5.827-6.3,15.04,15.04,0,0,0-5.451-13.7Z" transform="matrix(-0.956, 0.292, -0.292, -0.956, 1233.174, 436.638)" fill="rgba(255,255,255,0.15)"/><path d="M11.807,23.2a9.827,9.827,0,0,1-4.229-1.02,13.056,13.056,0,0,1-6.2-6.393A12.277,12.277,0,0,1,.41,7.071,8.95,8.95,0,0,1,5.253.872,8.773,8.773,0,0,1,9.031,0,10.083,10.083,0,0,1,13,.872a13.049,13.049,0,0,1,6.2,6.393,13.577,13.577,0,0,1,1.163,8.912,8.953,8.953,0,0,1-4.844,6.2A9.015,9.015,0,0,1,11.807,23.2ZM9.359,2.918a6.572,6.572,0,0,0-2.828.652,6.7,6.7,0,0,0-3.624,4.64,9.188,9.188,0,0,0,.725,6.524A9.767,9.767,0,0,0,8.271,19.52a7.356,7.356,0,0,0,3.165.763,6.518,6.518,0,0,0,6.4-5.258,10.164,10.164,0,0,0-.869-6.67,9.774,9.774,0,0,0-4.64-4.785A7.553,7.553,0,0,0,9.359,2.918Z" transform="translate(1386.698 138.205) rotate(-25)" fill="rgba(255,255,255,0.15)"/><path d="M11.807,23.2a9.827,9.827,0,0,1-4.229-1.02,13.056,13.056,0,0,1-6.2-6.393A12.277,12.277,0,0,1,.41,7.071,8.95,8.95,0,0,1,5.253.872,8.773,8.773,0,0,1,9.031,0,10.083,10.083,0,0,1,13,.872a13.049,13.049,0,0,1,6.2,6.393,13.577,13.577,0,0,1,1.163,8.912,8.953,8.953,0,0,1-4.844,6.2A9.015,9.015,0,0,1,11.807,23.2ZM9.359,2.918a6.572,6.572,0,0,0-2.828.652,6.7,6.7,0,0,0-3.624,4.64,9.188,9.188,0,0,0,.725,6.524A9.767,9.767,0,0,0,8.271,19.52a7.356,7.356,0,0,0,3.165.763,6.518,6.518,0,0,0,6.4-5.258,10.164,10.164,0,0,0-.869-6.67,9.774,9.774,0,0,0-4.64-4.785A7.553,7.553,0,0,0,9.359,2.918Z" transform="translate(878.021 182.518) rotate(76)" fill="rgba(255,255,255,0.15)"/><path d="M11.807,23.2a9.827,9.827,0,0,1-4.229-1.02,13.056,13.056,0,0,1-6.2-6.393A12.277,12.277,0,0,1,.41,7.071,8.95,8.95,0,0,1,5.253.872,8.773,8.773,0,0,1,9.031,0,10.083,10.083,0,0,1,13,.872a13.049,13.049,0,0,1,6.2,6.393,13.577,13.577,0,0,1,1.163,8.912,8.953,8.953,0,0,1-4.844,6.2A9.015,9.015,0,0,1,11.807,23.2ZM9.359,2.918a6.572,6.572,0,0,0-2.828.652,6.7,6.7,0,0,0-3.624,4.64,9.188,9.188,0,0,0,.725,6.524A9.767,9.767,0,0,0,8.271,19.52a7.356,7.356,0,0,0,3.165.763,6.518,6.518,0,0,0,6.4-5.258,10.164,10.164,0,0,0-.869-6.67,9.774,9.774,0,0,0-4.64-4.785A7.553,7.553,0,0,0,9.359,2.918Z" transform="translate(106.467 138.205) rotate(-25)" fill="rgba(255,255,255,0.15)"/><path d="M15.388,30.239A12.808,12.808,0,0,1,9.876,28.91,17.017,17.017,0,0,1,1.8,20.578,16,16,0,0,1,.534,9.216a11.665,11.665,0,0,1,6.312-8.08A11.434,11.434,0,0,1,11.77,0a13.141,13.141,0,0,1,5.176,1.137,17.007,17.007,0,0,1,8.08,8.332A17.7,17.7,0,0,1,26.54,21.084a11.669,11.669,0,0,1-6.313,8.08A11.75,11.75,0,0,1,15.388,30.239ZM12.2,3.8a8.565,8.565,0,0,0-3.685.85A8.732,8.732,0,0,0,3.788,10.7a11.975,11.975,0,0,0,.944,8.5,12.73,12.73,0,0,0,6.047,6.237,9.588,9.588,0,0,0,4.125.995,8.5,8.5,0,0,0,8.347-6.853,13.247,13.247,0,0,0-1.133-8.693A12.738,12.738,0,0,0,16.07,4.653,9.844,9.844,0,0,0,12.2,3.8Z" transform="translate(191.129 239.997) rotate(59)" fill="rgba(255,255,255,0.15)"/><path d="M15.388,30.239A12.808,12.808,0,0,1,9.876,28.91,17.017,17.017,0,0,1,1.8,20.578,16,16,0,0,1,.534,9.216a11.665,11.665,0,0,1,6.312-8.08A11.434,11.434,0,0,1,11.77,0a13.141,13.141,0,0,1,5.176,1.137,17.007,17.007,0,0,1,8.08,8.332A17.7,17.7,0,0,1,26.54,21.084a11.669,11.669,0,0,1-6.313,8.08A11.75,11.75,0,0,1,15.388,30.239ZM12.2,3.8a8.565,8.565,0,0,0-3.685.85A8.732,8.732,0,0,0,3.788,10.7a11.975,11.975,0,0,0,.944,8.5,12.73,12.73,0,0,0,6.047,6.237,9.588,9.588,0,0,0,4.125.995,8.5,8.5,0,0,0,8.347-6.853,13.247,13.247,0,0,0-1.133-8.693A12.738,12.738,0,0,0,16.07,4.653,9.844,9.844,0,0,0,12.2,3.8Z" transform="translate(1230.918 208.021) rotate(59)" fill="rgba(255,255,255,0.15)"/></g></svg>