<svg xmlns="http://www.w3.org/2000/svg" width="28" height="27.315" viewBox="0 0 28 27.315"><g transform="translate(0 -5.365)"><path d="M26.122,12.338a13.939,13.939,0,0,0-5.095-5.1A13.693,13.693,0,0,0,14,5.365,13.7,13.7,0,0,0,6.973,7.243a13.937,13.937,0,0,0-5.1,5.1A13.694,13.694,0,0,0,0,19.364a13.606,13.606,0,0,0,2.671,8.23,13.711,13.711,0,0,0,6.9,5.058.816.816,0,0,0,.729-.127.713.713,0,0,0,.237-.547q0-.055-.009-.984t-.009-1.622l-.419.073a5.348,5.348,0,0,1-1.012.064,7.708,7.708,0,0,1-1.267-.128A2.831,2.831,0,0,1,6.6,28.835a2.313,2.313,0,0,1-.8-1.121l-.182-.419a4.555,4.555,0,0,0-.574-.93,2.2,2.2,0,0,0-.793-.693l-.128-.091a1.338,1.338,0,0,1-.237-.219,1,1,0,0,1-.164-.255q-.055-.128.091-.21a1.182,1.182,0,0,1,.529-.081l.364.054a2.661,2.661,0,0,1,.9.437,2.942,2.942,0,0,1,.884.948A3.213,3.213,0,0,0,7.5,27.394a2.146,2.146,0,0,0,1.194.392A5.184,5.184,0,0,0,9.734,27.7a3.626,3.626,0,0,0,.82-.274,2.954,2.954,0,0,1,.893-1.878,12.481,12.481,0,0,1-1.868-.328A7.44,7.44,0,0,1,7.865,24.5,4.907,4.907,0,0,1,6.4,23.283a5.869,5.869,0,0,1-.957-1.914,9.1,9.1,0,0,1-.374-2.734,5.317,5.317,0,0,1,1.44-3.755,4.9,4.9,0,0,1,.128-3.718,2.554,2.554,0,0,1,1.568.246,10.961,10.961,0,0,1,1.522.7q.483.291.775.492a13.165,13.165,0,0,1,7,0l.693-.437a9.81,9.81,0,0,1,1.677-.8,2.389,2.389,0,0,1,1.477-.2,4.853,4.853,0,0,1,.146,3.718,5.318,5.318,0,0,1,1.44,3.755,9.2,9.2,0,0,1-.374,2.743,5.641,5.641,0,0,1-.966,1.914A5.1,5.1,0,0,1,20.116,24.5a7.454,7.454,0,0,1-1.714.711,12.469,12.469,0,0,1-1.868.329,3.247,3.247,0,0,1,.948,2.588v3.846a.726.726,0,0,0,.228.547.792.792,0,0,0,.72.127,13.71,13.71,0,0,0,6.9-5.058A13.608,13.608,0,0,0,28,19.364,13.706,13.706,0,0,0,26.122,12.338Z" fill="#fff"/></g></svg>