<svg xmlns="http://www.w3.org/2000/svg" viewBox="0 0 1442.296 191.373"><g transform="translate(-1691.5 -537)"><g transform="translate(2090.052 618.663)"><path d="M270.473,54.814a36.433,36.433,0,0,1,13.872-7.561c5.352-1.515,10.868-1.682,16.352-2.549.063-.009.21.156.141.2l-.007,0c4.382-1.04,9.16-.719,13.618-.458a45.19,45.19,0,0,1,20.535,6.292c12.028,7.263,17.421,21.039,17.372,34.6a36.793,36.793,0,0,1-6.373,20.469,34.018,34.018,0,0,1-16.013,12.679c-10.621,4.382-23.577,6.01-35.212,3.418a62.39,62.39,0,0,1-10.447-2.495,34.738,34.738,0,0,1-13.475-7.594c-7.422-6.732-11.069-17.849-11.242-27.6C259.407,73.66,262.041,61.811,270.473,54.814Z" transform="translate(-259.585 -20.045)" fill="#5e2c00"/><path d="M269.581,108.641c3.671,4.671,8.094,7.552,14.465,9.94l-.168-.088a57.51,57.51,0,0,0,11.492,2.621c1.4.178,2.79.359,4.187.484a61.707,61.707,0,0,0,24.747-2.245c6.4-1.887,12.457-4.773,17.081-9.658a36.441,36.441,0,0,0,9.28-18.221c2.87-14.826-2.826-31.337-16-39.3a44.248,44.248,0,0,0-19.405-5.83c-6.619-.462-14.188-1.012-20.1,2.651-.223.137-.693-.461-.49-.611a15.513,15.513,0,0,1,1.65-1.056c-2.094.428-4.285.553-6.4.844a35.031,35.031,0,0,0-13.347,5.012c-4.2,2.677-8.562,6.692-11,11.069-2.4,4.317-3.387,9.682-3.942,14.52C260.346,90.048,262.479,99.606,269.581,108.641Z" transform="translate(-259.729 -20.673)" fill="#f01402"/><path d="M276.094,109.41c6.353-11.23,9.826-25.68,5.062-38.143-3.534-9.246-11.117-16.477-19.874-21.212a38.782,38.782,0,0,1,7.689,3.514c13.177,7.964,18.873,24.475,16,39.3a36.441,36.441,0,0,1-9.28,18.221q-.743.785-1.535,1.5C274.843,111.543,275.489,110.478,276.094,109.41Z" transform="translate(-194.039 -22.071)" fill="rgba(255,255,255,0.42)"/><path d="M285.368,78.771c.554-4.838,1.541-10.2,3.941-14.52,2.433-4.376,6.8-8.392,11-11.069a35.031,35.031,0,0,1,13.347-5.012c2.112-.292,4.3-.416,6.4-.844a15.52,15.52,0,0,0-1.65,1.056c-.2.151.266.749.49.611,5.911-3.663,13.48-3.113,20.1-2.651a47.7,47.7,0,0,1,10.706,1.994,11.433,11.433,0,0,1-4.848,4.941c-3.905,2.143-8.064,2.211-12.4,2.332a.282.282,0,0,0-.2.476c2.717,3.472,7.378,4.614,11.516,5.339,5.237.918,10.489,2.045,15.826,1.991-3.123,3.663-9.11,4.38-13.6,4.559-6.334.253-12.109-1.559-17.935-3.853a.27.27,0,0,0-.272.073c-3.918,4.878-8.188,9.467-11.994,14.436-3.271,4.268-6.008,8.863-6.479,14.345-.749,8.739,4.758,16.693,12.035,21.11,8.948,5.431,20.139,5.651,30.042,3.036a56.934,56.934,0,0,0,8.135-2.826,44.214,44.214,0,0,1-11.487,5.056,61.707,61.707,0,0,1-24.747,2.245c-1.4-.124-2.79-.306-4.187-.484a57.512,57.512,0,0,1-11.492-2.621l.168.088c-6.371-2.388-10.794-5.269-14.465-9.94C286.211,99.606,284.078,90.048,285.368,78.771Z" transform="translate(-283.461 -20.673)" fill="rgba(0,0,0,0.1)"/><path d="M280.825,36.928c3.591,2.992,8.317,3.025,12.765,3.434a25.321,25.321,0,0,0,7.194-.379,18.22,18.22,0,0,1-8.717-6.79,13.348,13.348,0,0,1-2.33-8.038c.108-2.118,1.378-5.3,3.54-6.053.408-.144,1.009.757.886,1.1-1.926,5.358,2.99,9.761,7.318,12.07a17.606,17.606,0,0,0,8.073,1.844,16.955,16.955,0,0,0,2.825-.263,1.713,1.713,0,0,1,.219-.084,5.986,5.986,0,0,0,1.6-1.563c.075-.257.153-.514.221-.776a39.041,39.041,0,0,0,1.125-5.128,23,23,0,0,0-5.023-12.521c-1.039-1.129-3.481-1.947-3.888-3.608-.438-1.787,2.98-2.495,4.046-2.712,4.482-.919,7.405,2.295,8.745,6.27a16.483,16.483,0,0,1,.826,3.947,24.527,24.527,0,0,1,.215,4.939c-.115,2.118-.35,4.2-.433,6.33-.037.918-.129,1.99-.145,3.083l1.289,1.479c5.711.344,10.813-2.921,13.838-7.637a18.9,18.9,0,0,0,2.966-8.631,21.669,21.669,0,0,0-.168-4.591,4.152,4.152,0,0,1-.014-2.293.1.1,0,0,1,.122-.052c1.534.557,2.124,3.1,2.59,4.476a29.739,29.739,0,0,1,1.583,12.206c-.481,5.241-4.551,11.574-9.867,13.317a9.172,9.172,0,0,1-4.766,1.076c.531.294,1.063.581,1.6.846a68.024,68.024,0,0,0,9.078,3.724,47.866,47.866,0,0,0,8.89,1.883c1.971.252,4.6,0,6.425.8.271.119.782.667.622,1-.85,1.788-5.63,2.695-7.285,3.185a26.571,26.571,0,0,1-10.78.429c-5.818-.746-12.2-2.935-16.785-6.806a20.388,20.388,0,0,1-6.8,8.281c-3.807,2.863-9.726,5.909-14.619,5.881-.3,0-1.2-.933-.782-1.11,5.818-2.435,9.454-7.379,12.074-12.819-4.909,1.592-11.25.5-15.676-.475a21.571,21.571,0,0,1-9.213-4.273c-1.328-1.113-3.716-3.06-3.877-4.926C280.309,36.7,280.69,36.816,280.825,36.928Z" transform="translate(-274.914 -7.307)" fill="#5e2c00"/><path d="M283.065,39.54a17.84,17.84,0,0,0,4.857,4.042,27.353,27.353,0,0,0,8.6,2.672c3.358.6,8.054,1.192,12.081.39a6.2,6.2,0,0,0,2.856-.492c-.065.5-.145,1-.206,1.494a25.517,25.517,0,0,1-9.676,11.945,34.715,34.715,0,0,0,10.11-4.8,21.439,21.439,0,0,0,7.588-8.476l-.037-.035c.077-.113.151-.229.226-.343a6.9,6.9,0,0,0,1.828.985,39.223,39.223,0,0,0,14.083,5.521,30.861,30.861,0,0,0,9.655.174,23.538,23.538,0,0,0,4.766-1.279,15.373,15.373,0,0,0,3.58-1.4c-1.882-.4-4.264-.267-5.983-.489a47.978,47.978,0,0,1-8.858-2.094,61.671,61.671,0,0,1-10.667-5.106c-.444-.418-.882-.843-1.328-1.26.18.1.36.2.539.3a.118.118,0,0,1,.066-.133,32.216,32.216,0,0,1,4.144-1.25,40.979,40.979,0,0,0,4.79-2.26,17.329,17.329,0,0,0,5.426-8.216c1.126-3.462.818-7.392.1-10.9a38.32,38.32,0,0,0-1.48-5.065A1.748,1.748,0,0,0,339.1,12.28c.119.7.269,1.4.38,2.1,1.46,9.322-5.238,19.522-14.657,20.388a.73.73,0,0,1,.064.047l.029.027c-.113-.007-.227-.012-.341-.016,0-.01-.005-.024,0-.034-.177.014-.357.015-.537.021a5.122,5.122,0,0,1-2.561-.474,4.335,4.335,0,0,1-.683-.49,5.963,5.963,0,0,0,1.584,4.171,1.308,1.308,0,0,1,.242.439c-3.163-1.482-2.766-5.595-2.478-8.686.194-2.083.3-4.18.34-6.272a30.932,30.932,0,0,0-.365-5.136c-.023-.856-.076-1.712-.181-2.57a12.45,12.45,0,0,0-2.341-5.047c-1.835-2.255-4.47-1.809-6.846-1.182-4.49,1.185.033,3.178,1.474,4.734a19.655,19.655,0,0,1,4.11,7.25c.05.147.1.3.149.465a.714.714,0,0,1,.145.2,21.915,21.915,0,0,1,.505,2.378c.125,5.617-1.172,11.277-4.965,15.453.822-1.715,1.591-3.411,2.233-5.17a6.186,6.186,0,0,1-.718.272,22.76,22.76,0,0,1-3.452.621c-.087,0-.173,0-.261.009a18.46,18.46,0,0,1-10.993-4.056c-3.056-2.315-5.75-6.037-5.416-9.886A9.78,9.78,0,0,0,291.7,26.55c-.407,2.642.862,5.564,2.419,7.606a15.932,15.932,0,0,0,9,5.583c.344.156.695.3,1.055.438.628.233,1.255.6,1.9.877a23.944,23.944,0,0,1-9.991,1.349c-4.416-.321-9.58-.391-13.288-3.125A3.309,3.309,0,0,1,283.065,39.54Z" transform="translate(-275.792 -7.912)" fill="#009c45"/><path d="M283.172,61.328c1.343-1.122,3.491,1.033,4.532,1.777,3.3,2.363,7.768,3.769,11.661,4.768a40.679,40.679,0,0,0,11.844,1.309c1.608-.069,3.686-.249,4.863-1.434.261.036.517.079.763.131a15.373,15.373,0,0,1-3.58,1.4,23.539,23.539,0,0,1-4.766,1.279,30.861,30.861,0,0,1-9.655-.174,39.223,39.223,0,0,1-14.083-5.521,6.349,6.349,0,0,1-1.244-.6C282.9,63.282,282.422,61.953,283.172,61.328Z" transform="translate(-239.254 -25.854)" fill="#009c45"/><path d="M364.96,42.519a22.761,22.761,0,0,0,3.452-.621,6.185,6.185,0,0,0,.718-.272c-.075.209-.16.415-.239.622A17.305,17.305,0,0,1,355.5,51.358a21.055,21.055,0,0,1-10.7-1.908c-.844-.4-1.663-.835-2.472-1.292a50.911,50.911,0,0,0,8.481.987A23.943,23.943,0,0,0,360.8,47.8c-.646-.28-1.272-.644-1.9-.877-.36-.134-.71-.281-1.055-.438a15.932,15.932,0,0,1-9-5.583c-1.557-2.042-2.825-4.964-2.419-7.606a9.779,9.779,0,0,1,1.858-4.708c-.334,3.849,2.359,7.571,5.416,9.886A18.459,18.459,0,0,0,364.7,42.528C364.786,42.523,364.873,42.522,364.96,42.519Z" transform="translate(-330.525 -14.656)" fill="#009c45"/><path d="M339.6,9.249a2.134,2.134,0,0,0,.181,2.721c1.419,1.514,2.956,2.687,3.848,4.648,3.17,6.982,2.134,15.552-3.358,20.975a23.51,23.51,0,0,0,3.109-12.987,21.893,21.893,0,0,0-.505-2.378.714.714,0,0,0-.145-.2c-.049-.161-.1-.319-.149-.465a19.655,19.655,0,0,0-4.11-7.25c-1.441-1.557-5.964-3.549-1.474-4.734a14,14,0,0,1,2.738-.5C339.69,9.133,339.64,9.188,339.6,9.249Z" transform="translate(-302.043 -7.918)" fill="#009c45"/><path d="M355.222,64.994a15.8,15.8,0,0,1-2.777,5.722,21.664,21.664,0,0,1-7.8,6.232c-.415.13-.83.252-1.247.355a25.517,25.517,0,0,0,9.676-11.945c.017-.142.039-.283.058-.424a25.149,25.149,0,0,0,1.346-4.586C355.912,61.127,355.552,63.693,355.222,64.994Z" transform="translate(-317.615 -25.625)" fill="#009c45"/><path d="M309.73,39.583a40.971,40.971,0,0,1-4.79,2.26,32.218,32.218,0,0,0-4.144,1.25l0,0a5.367,5.367,0,0,1-1.007-.4A19.962,19.962,0,0,0,312.317,30.5c1.758-4.825,2.765-10.788,1.066-15.826a1.8,1.8,0,0,1,.39.729,38.311,38.311,0,0,1,1.48,5.065c.721,3.509,1.03,7.439-.1,10.9A17.329,17.329,0,0,1,309.73,39.583Z" transform="translate(-249.445 -9.851)" fill="#009c45"/></g><g transform="translate(1897.5 654.663)"><path d="M267.369,51.786a26.047,26.047,0,0,1,9.918-5.406c3.826-1.083,7.77-1.2,11.69-1.822.045-.007.15.111.1.143l0,0c3.133-.744,6.548-.514,9.736-.327a32.307,32.307,0,0,1,14.681,4.5c8.6,5.192,12.455,15.041,12.42,24.734a26.3,26.3,0,0,1-4.556,14.634,24.32,24.32,0,0,1-11.448,9.065,43.308,43.308,0,0,1-25.174,2.444,44.6,44.6,0,0,1-7.468-1.784,24.835,24.835,0,0,1-9.634-5.429c-5.306-4.813-7.913-12.761-8.037-19.733C259.458,65.259,261.341,56.788,267.369,51.786Z" transform="translate(-259.585 -26.929)" fill="#5e2c00"/><path d="M267.215,90.786c2.625,3.339,5.786,5.4,10.341,7.106l-.12-.063a41.114,41.114,0,0,0,8.216,1.873c1,.127,1.995.257,2.993.346a44.115,44.115,0,0,0,17.692-1.6c4.572-1.349,8.906-3.412,12.211-6.9a26.052,26.052,0,0,0,6.634-13.026c2.052-10.6-2.02-22.4-11.441-28.1a31.634,31.634,0,0,0-13.873-4.168c-4.732-.33-10.143-.724-14.369,1.9-.16.1-.5-.329-.35-.437a11.092,11.092,0,0,1,1.18-.755c-1.5.306-3.064.4-4.573.6a25.044,25.044,0,0,0-9.542,3.583,24.011,24.011,0,0,0-7.861,7.913c-1.716,3.087-2.422,6.922-2.818,10.381C260.613,77.493,262.138,84.327,267.215,90.786Z" transform="translate(-260.172 -27.896)" fill="#f01402"/><path d="M271.871,92.489c4.542-8.028,7.025-18.359,3.619-27.269-2.526-6.61-7.948-11.78-14.208-15.165a27.725,27.725,0,0,1,5.5,2.512c9.421,5.694,13.493,17.5,11.441,28.1a26.052,26.052,0,0,1-6.634,13.026q-.531.561-1.1,1.073C270.977,94.014,271.439,93.253,271.871,92.489Z" transform="translate(-213.209 -30.048)" fill="rgba(255,255,255,0.42)"/><path d="M285.267,69.432c.4-3.459,1.1-7.294,2.818-10.381a24.011,24.011,0,0,1,7.861-7.913,25.044,25.044,0,0,1,9.542-3.583c1.51-.209,3.076-.3,4.573-.6a11.093,11.093,0,0,0-1.18.755c-.145.108.19.535.35.437,4.226-2.619,9.637-2.225,14.369-1.9a34.1,34.1,0,0,1,7.654,1.426,8.173,8.173,0,0,1-3.466,3.533c-2.792,1.532-5.765,1.58-8.867,1.667a.2.2,0,0,0-.141.34c1.943,2.482,5.275,3.3,8.233,3.817a62.19,62.19,0,0,0,11.315,1.423c-2.232,2.619-6.513,3.131-9.72,3.259-4.528.181-8.657-1.114-12.822-2.754a.193.193,0,0,0-.194.052c-2.8,3.487-5.854,6.768-8.575,10.321-2.338,3.051-4.3,6.336-4.632,10.256-.535,6.248,3.4,11.934,8.6,15.092,6.4,3.883,14.4,4.04,21.477,2.171a40.7,40.7,0,0,0,5.816-2.02,31.61,31.61,0,0,1-8.212,3.615,44.115,44.115,0,0,1-17.692,1.6c-1-.089-1.995-.219-2.993-.346a41.116,41.116,0,0,1-8.216-1.873l.12.063c-4.555-1.707-7.717-3.767-10.341-7.106C285.87,84.327,284.344,77.493,285.267,69.432Z" transform="translate(-283.903 -27.896)" fill="rgba(0,0,0,0.1)"/><path d="M280.685,28.484c2.567,2.139,5.946,2.163,9.126,2.455a18.1,18.1,0,0,0,5.143-.271,13.026,13.026,0,0,1-6.232-4.854,9.543,9.543,0,0,1-1.666-5.746c.077-1.514.985-3.788,2.531-4.327.292-.1.722.541.633.789-1.377,3.83,2.138,6.979,5.231,8.629a12.587,12.587,0,0,0,5.772,1.318,12.122,12.122,0,0,0,2.019-.188,1.224,1.224,0,0,1,.157-.06,4.28,4.28,0,0,0,1.145-1.118c.054-.184.109-.367.158-.555a27.912,27.912,0,0,0,.8-3.666,16.441,16.441,0,0,0-3.591-8.951c-.743-.807-2.488-1.392-2.78-2.58-.313-1.277,2.13-1.784,2.893-1.939,3.2-.657,5.294,1.64,6.252,4.482a11.784,11.784,0,0,1,.591,2.822,17.533,17.533,0,0,1,.154,3.531c-.082,1.514-.25,3.006-.31,4.525-.026.656-.092,1.423-.1,2.2l.922,1.057a11.161,11.161,0,0,0,9.893-5.46,13.51,13.51,0,0,0,2.12-6.17,15.5,15.5,0,0,0-.12-3.282,2.968,2.968,0,0,1-.01-1.639.068.068,0,0,1,.087-.037c1.1.4,1.519,2.217,1.852,3.2a21.259,21.259,0,0,1,1.132,8.726c-.344,3.747-3.254,8.275-7.054,9.52a6.557,6.557,0,0,1-3.408.769c.38.21.76.416,1.142.605a48.631,48.631,0,0,0,6.49,2.663,34.221,34.221,0,0,0,6.356,1.346c1.409.18,3.287,0,4.594.571.194.085.559.477.445.718-.608,1.279-4.025,1.926-5.208,2.277a19,19,0,0,1-7.707.307,23.711,23.711,0,0,1-12-4.866,14.576,14.576,0,0,1-4.859,5.92c-2.722,2.047-6.953,4.224-10.451,4.2-.217,0-.86-.667-.559-.793,4.159-1.741,6.759-5.275,8.632-9.165-3.51,1.138-8.043.361-11.207-.339a15.421,15.421,0,0,1-6.586-3.055c-.95-.8-2.656-2.188-2.772-3.521C280.316,28.32,280.589,28.4,280.685,28.484Z" transform="translate(-276.459 -7.307)" fill="#5e2c00"/><path d="M282.986,30.85a12.753,12.753,0,0,0,3.472,2.89,19.555,19.555,0,0,0,6.147,1.91,24.586,24.586,0,0,0,8.637.278,4.433,4.433,0,0,0,2.041-.352c-.047.355-.1.711-.147,1.068a18.243,18.243,0,0,1-6.917,8.54,24.818,24.818,0,0,0,7.228-3.432,15.327,15.327,0,0,0,5.425-6.06l-.027-.025c.055-.081.108-.164.162-.245a4.931,4.931,0,0,0,1.307.7,28.041,28.041,0,0,0,10.068,3.947,22.063,22.063,0,0,0,6.9.124,16.828,16.828,0,0,0,3.408-.915,10.991,10.991,0,0,0,2.56-1c-1.346-.286-3.048-.191-4.277-.35a34.3,34.3,0,0,1-6.333-1.5,44.09,44.09,0,0,1-7.626-3.651c-.317-.3-.631-.6-.949-.9.129.07.257.142.386.213a.084.084,0,0,1,.047-.1,23.034,23.034,0,0,1,2.962-.893,29.292,29.292,0,0,0,3.424-1.616,12.388,12.388,0,0,0,3.879-5.874,15.573,15.573,0,0,0,.069-7.793,27.4,27.4,0,0,0-1.058-3.621,1.25,1.25,0,0,0-.73-.846c.085.5.192,1,.272,1.5,1.044,6.665-3.745,13.957-10.478,14.575a.514.514,0,0,1,.046.034l.021.02c-.081-.005-.162-.008-.244-.012,0-.007,0-.017,0-.024-.126.01-.256.011-.384.015a3.662,3.662,0,0,1-1.831-.339,3.1,3.1,0,0,1-.488-.351,4.263,4.263,0,0,0,1.133,2.982.935.935,0,0,1,.173.314c-2.261-1.06-1.977-4-1.771-6.21.139-1.489.212-2.988.243-4.484a22.119,22.119,0,0,0-.261-3.672c-.016-.612-.054-1.224-.13-1.837a8.9,8.9,0,0,0-1.674-3.608c-1.312-1.612-3.2-1.293-4.895-.845-3.21.847.023,2.272,1.054,3.385a14.051,14.051,0,0,1,2.939,5.183c.036.1.071.218.106.333a.512.512,0,0,1,.1.146,15.668,15.668,0,0,1,.361,1.7c.089,4.016-.838,8.062-3.55,11.048.588-1.226,1.138-2.439,1.6-3.7a4.421,4.421,0,0,1-.513.195,16.272,16.272,0,0,1-2.468.444c-.062,0-.124,0-.187.007a13.2,13.2,0,0,1-7.859-2.9c-2.185-1.655-4.111-4.316-3.872-7.068a6.991,6.991,0,0,0-1.328,3.366A7.669,7.669,0,0,0,290.888,27a11.39,11.39,0,0,0,6.431,3.991c.246.112.5.217.754.313.449.167.9.426,1.359.627a17.118,17.118,0,0,1-7.143.964c-3.157-.229-6.849-.279-9.5-2.234A2.37,2.37,0,0,1,282.986,30.85Z" transform="translate(-277.787 -8.239)" fill="#009c45"/><path d="M283.063,61.237c.96-.8,2.5.739,3.24,1.271a25.635,25.635,0,0,0,8.337,3.409,29.082,29.082,0,0,0,8.467.936c1.15-.049,2.635-.178,3.476-1.025.187.026.37.057.546.094a10.991,10.991,0,0,1-2.56,1,16.828,16.828,0,0,1-3.408.914,22.063,22.063,0,0,1-6.9-.124,28.041,28.041,0,0,1-10.068-3.947,4.54,4.54,0,0,1-.89-.427C282.87,62.635,282.527,61.684,283.063,61.237Z" transform="translate(-251.665 -35.876)" fill="#009c45"/><path d="M358.509,38.547a16.272,16.272,0,0,0,2.468-.444,4.424,4.424,0,0,0,.513-.195c-.054.149-.114.3-.171.445a12.372,12.372,0,0,1-9.574,6.514A15.053,15.053,0,0,1,344.1,43.5c-.6-.283-1.189-.6-1.767-.924a36.4,36.4,0,0,0,6.063.706,17.118,17.118,0,0,0,7.143-.964c-.462-.2-.909-.46-1.359-.627-.257-.1-.508-.2-.754-.313a11.39,11.39,0,0,1-6.431-3.991,7.669,7.669,0,0,1-1.729-5.438,6.991,6.991,0,0,1,1.328-3.366c-.239,2.751,1.687,5.413,3.872,7.068a13.2,13.2,0,0,0,7.859,2.9C358.385,38.55,358.446,38.549,358.509,38.547Z" transform="translate(-333.891 -18.627)" fill="#009c45"/><path d="M338.305,9.2a1.526,1.526,0,0,0,.129,1.945,12.64,12.64,0,0,1,2.751,3.323,13.4,13.4,0,0,1-2.4,15,16.808,16.808,0,0,0,2.223-9.285,15.646,15.646,0,0,0-.361-1.7.511.511,0,0,0-.1-.146c-.035-.115-.07-.228-.106-.333a14.052,14.052,0,0,0-2.939-5.183c-1.03-1.113-4.264-2.538-1.054-3.385a10.011,10.011,0,0,1,1.958-.354C338.37,9.117,338.334,9.157,338.305,9.2Z" transform="translate(-311.455 -8.249)" fill="#009c45"/><path d="M351.851,63.669a11.294,11.294,0,0,1-1.985,4.09,15.488,15.488,0,0,1-5.577,4.456c-.3.093-.593.18-.892.254a18.243,18.243,0,0,0,6.917-8.54c.012-.1.028-.2.042-.3a17.981,17.981,0,0,0,.962-3.279C352.344,60.9,352.087,62.739,351.851,63.669Z" transform="translate(-324.965 -35.523)" fill="#009c45"/><path d="M306.9,32.482a29.293,29.293,0,0,1-3.424,1.616,23.033,23.033,0,0,0-2.962.893l0,0a3.838,3.838,0,0,1-.72-.289,14.271,14.271,0,0,0,8.958-8.717c1.257-3.449,1.977-7.713.762-11.314a1.286,1.286,0,0,1,.278.521,27.384,27.384,0,0,1,1.058,3.621,15.574,15.574,0,0,1-.069,7.793A12.389,12.389,0,0,1,306.9,32.482Z" transform="translate(-263.797 -11.226)" fill="#009c45"/></g><g transform="translate(2859.023 575.663)"><path d="M267.622,52.032a26.892,26.892,0,0,1,10.24-5.581c3.951-1.119,8.022-1.242,12.07-1.882.046-.007.155.115.1.148l0,0c3.235-.768,6.761-.531,10.052-.338a33.356,33.356,0,0,1,15.157,4.645c8.878,5.361,12.859,15.529,12.823,25.537a27.158,27.158,0,0,1-4.7,15.109,25.11,25.11,0,0,1-11.82,9.359,44.714,44.714,0,0,1-25.991,2.523,46.053,46.053,0,0,1-7.711-1.841,25.641,25.641,0,0,1-9.946-5.606c-5.478-4.969-8.17-13.175-8.3-20.373C259.454,65.943,261.4,57.2,267.622,52.032Z" transform="translate(-259.585 -26.368)" fill="#5e2c00"/><path d="M267.408,92.239c2.71,3.448,5.974,5.574,10.677,7.337l-.124-.065a42.45,42.45,0,0,0,8.483,1.934c1.031.131,2.059.265,3.091.357a45.547,45.547,0,0,0,18.266-1.657c4.721-1.393,9.195-3.523,12.608-7.129a26.9,26.9,0,0,0,6.849-13.449c2.118-10.944-2.086-23.131-11.812-29.009a32.66,32.66,0,0,0-14.324-4.3c-4.886-.341-10.472-.747-14.836,1.957-.165.1-.511-.34-.361-.451a11.45,11.45,0,0,1,1.218-.779c-1.546.316-3.163.408-4.722.623a25.857,25.857,0,0,0-9.852,3.7,24.79,24.79,0,0,0-8.116,8.17c-1.772,3.187-2.5,7.147-2.909,10.718C260.591,78.515,262.166,85.57,267.408,92.239Z" transform="translate(-260.136 -27.308)" fill="#f01402"/><path d="M272.215,93.866c4.689-8.289,7.253-18.955,3.736-28.155-2.608-6.824-8.206-12.162-14.67-15.657a28.626,28.626,0,0,1,5.676,2.594c9.726,5.879,13.931,18.066,11.812,29.009a26.9,26.9,0,0,1-6.849,13.449q-.549.579-1.133,1.108C271.291,95.441,271.768,94.655,272.215,93.866Z" transform="translate(-211.648 -29.399)" fill="rgba(255,255,255,0.42)"/><path d="M285.275,70.192c.409-3.571,1.137-7.531,2.909-10.718A24.79,24.79,0,0,1,296.3,51.3a25.857,25.857,0,0,1,9.852-3.7c1.559-.215,3.176-.307,4.722-.623a11.45,11.45,0,0,0-1.218.779c-.15.111.2.553.361.451,4.363-2.7,9.95-2.3,14.836-1.957a35.207,35.207,0,0,1,7.9,1.472,8.439,8.439,0,0,1-3.579,3.647c-2.883,1.582-5.952,1.632-9.155,1.721a.208.208,0,0,0-.145.351c2.006,2.563,5.446,3.406,8.5,3.941a64.209,64.209,0,0,0,11.682,1.469c-2.3,2.7-6.724,3.233-10.036,3.365-4.675.187-8.938-1.151-13.238-2.844a.2.2,0,0,0-.2.054c-2.892,3.6-6.044,6.988-8.853,10.656-2.414,3.151-4.435,6.542-4.782,10.589-.553,6.451,3.512,12.322,8.884,15.582,6.6,4.009,14.865,4.171,22.175,2.241a42.023,42.023,0,0,0,6-2.086,32.635,32.635,0,0,1-8.479,3.732,45.547,45.547,0,0,1-18.266,1.657c-1.031-.092-2.059-.226-3.091-.357a42.451,42.451,0,0,1-8.483-1.934l.124.065c-4.7-1.763-7.967-3.889-10.677-7.337C285.9,85.57,284.323,78.515,285.275,70.192Z" transform="translate(-283.867 -27.308)" fill="rgba(0,0,0,0.1)"/><path d="M280.7,29.171c2.65,2.208,6.139,2.233,9.422,2.535a18.69,18.69,0,0,0,5.31-.28,13.449,13.449,0,0,1-6.434-5.012,9.852,9.852,0,0,1-1.72-5.933c.08-1.563,1.017-3.911,2.613-4.468.3-.106.745.559.654.815-1.422,3.955,2.207,7.205,5.4,8.909A13,13,0,0,0,301.9,27.1a12.516,12.516,0,0,0,2.085-.194,1.264,1.264,0,0,1,.162-.062,4.42,4.42,0,0,0,1.182-1.154c.055-.19.113-.379.163-.573a28.824,28.824,0,0,0,.831-3.785,16.975,16.975,0,0,0-3.708-9.242c-.767-.834-2.569-1.437-2.87-2.663-.323-1.319,2.2-1.842,2.987-2,3.308-.678,5.466,1.694,6.455,4.628a12.168,12.168,0,0,1,.61,2.913,18.1,18.1,0,0,1,.159,3.645c-.085,1.563-.258,3.1-.32,4.672-.027.677-.1,1.469-.107,2.275l.951,1.092a11.523,11.523,0,0,0,10.214-5.637,13.949,13.949,0,0,0,2.189-6.371,16,16,0,0,0-.124-3.389,3.064,3.064,0,0,1-.01-1.693.07.07,0,0,1,.09-.038c1.132.411,1.568,2.289,1.912,3.3a21.95,21.95,0,0,1,1.168,9.009c-.355,3.869-3.359,8.543-7.283,9.829a6.77,6.77,0,0,1-3.518.794c.392.217.784.429,1.179.625a50.213,50.213,0,0,0,6.7,2.749,35.332,35.332,0,0,0,6.562,1.39c1.455.186,3.394,0,4.743.59.2.088.577.492.459.742-.628,1.32-4.156,1.989-5.377,2.351a19.612,19.612,0,0,1-7.957.317A24.481,24.481,0,0,1,309.039,36.2a15.049,15.049,0,0,1-5.017,6.113c-2.81,2.114-7.179,4.361-10.79,4.341-.224,0-.888-.689-.577-.819,4.294-1.8,6.978-5.447,8.912-9.462-3.624,1.175-8.3.373-11.571-.35a15.922,15.922,0,0,1-6.8-3.154c-.98-.821-2.743-2.259-2.862-3.636C280.316,29,280.6,29.088,280.7,29.171Z" transform="translate(-276.333 -7.307)" fill="#5e2c00"/><path d="M282.993,31.557a13.168,13.168,0,0,0,3.585,2.984,20.19,20.19,0,0,0,6.346,1.972,25.384,25.384,0,0,0,8.917.288,4.576,4.576,0,0,0,2.108-.363c-.048.366-.107.734-.152,1.1a18.835,18.835,0,0,1-7.142,8.817,25.623,25.623,0,0,0,7.462-3.543,15.825,15.825,0,0,0,5.6-6.257l-.028-.026c.057-.084.111-.169.167-.253a5.091,5.091,0,0,0,1.349.727A28.951,28.951,0,0,0,321.6,41.08a22.779,22.779,0,0,0,7.127.129,17.374,17.374,0,0,0,3.518-.944,11.346,11.346,0,0,0,2.643-1.032c-1.389-.3-3.147-.2-4.416-.361a35.413,35.413,0,0,1-6.538-1.545,45.52,45.52,0,0,1-7.874-3.769c-.328-.309-.651-.622-.98-.93.133.072.266.146.4.22a.087.087,0,0,1,.048-.1,23.778,23.778,0,0,1,3.059-.922,30.247,30.247,0,0,0,3.536-1.669,12.791,12.791,0,0,0,4.005-6.065,16.079,16.079,0,0,0,.071-8.046,28.286,28.286,0,0,0-1.092-3.739,1.291,1.291,0,0,0-.753-.873c.088.518.2,1.031.281,1.551,1.078,6.881-3.866,14.41-10.818,15.049a.536.536,0,0,1,.047.035l.022.02c-.084-.005-.168-.009-.252-.012,0-.008,0-.018,0-.025-.13.01-.264.011-.4.015a3.781,3.781,0,0,1-1.89-.35,3.2,3.2,0,0,1-.5-.362,4.4,4.4,0,0,0,1.169,3.079.965.965,0,0,1,.178.324c-2.334-1.094-2.042-4.129-1.829-6.411.143-1.538.219-3.085.251-4.63a22.838,22.838,0,0,0-.27-3.791c-.017-.632-.056-1.264-.134-1.9a9.19,9.19,0,0,0-1.728-3.725c-1.354-1.664-3.3-1.335-5.053-.873-3.314.875.024,2.345,1.088,3.495a14.508,14.508,0,0,1,3.034,5.352c.037.108.073.225.11.344a.528.528,0,0,1,.107.151,16.174,16.174,0,0,1,.373,1.755c.092,4.146-.865,8.324-3.665,11.406.607-1.266,1.175-2.518,1.648-3.816a4.568,4.568,0,0,1-.53.2,16.8,16.8,0,0,1-2.548.459c-.064,0-.128,0-.193.007a13.626,13.626,0,0,1-8.114-2.994c-2.256-1.709-4.244-4.456-4-7.3a7.219,7.219,0,0,0-1.371,3.475,7.918,7.918,0,0,0,1.785,5.614,11.76,11.76,0,0,0,6.64,4.121c.254.115.513.224.779.323.464.172.926.44,1.4.647a17.673,17.673,0,0,1-7.375,1c-3.259-.237-7.071-.288-9.808-2.306A2.453,2.453,0,0,1,282.993,31.557Z" transform="translate(-277.624 -8.212)" fill="#009c45"/><path d="M283.072,61.244c.992-.828,2.577.763,3.345,1.312a26.466,26.466,0,0,0,8.607,3.52,30.026,30.026,0,0,0,8.742.966c1.187-.051,2.721-.184,3.589-1.058.193.027.382.058.563.1a11.348,11.348,0,0,1-2.643,1.032,17.374,17.374,0,0,1-3.518.944,22.779,22.779,0,0,1-7.127-.129,28.952,28.952,0,0,1-10.395-4.075,4.686,4.686,0,0,1-.919-.441C282.873,62.687,282.518,61.706,283.072,61.244Z" transform="translate(-250.654 -35.06)" fill="#009c45"/><path d="M359.034,38.87a16.8,16.8,0,0,0,2.548-.459,4.565,4.565,0,0,0,.53-.2c-.056.154-.118.306-.176.459a12.773,12.773,0,0,1-9.885,6.725,15.542,15.542,0,0,1-7.9-1.408c-.623-.292-1.227-.616-1.825-.954a37.579,37.579,0,0,0,6.26.729,17.673,17.673,0,0,0,7.375-1c-.477-.207-.939-.475-1.4-.647-.266-.1-.524-.208-.778-.323a11.76,11.76,0,0,1-6.64-4.121,7.918,7.918,0,0,1-1.785-5.614,7.218,7.218,0,0,1,1.371-3.475c-.246,2.841,1.741,5.588,4,7.3a13.625,13.625,0,0,0,8.114,2.994C358.906,38.873,358.969,38.873,359.034,38.87Z" transform="translate(-333.617 -18.304)" fill="#009c45"/><path d="M338.41,9.2a1.575,1.575,0,0,0,.133,2.008,13.052,13.052,0,0,1,2.84,3.431c2.34,5.153,1.575,11.479-2.478,15.482a17.354,17.354,0,0,0,2.295-9.586,16.166,16.166,0,0,0-.373-1.755.528.528,0,0,0-.107-.151c-.036-.119-.073-.235-.11-.344a14.507,14.507,0,0,0-3.034-5.352c-1.064-1.149-4.4-2.62-1.088-3.495a10.336,10.336,0,0,1,2.021-.366C338.477,9.119,338.44,9.159,338.41,9.2Z" transform="translate(-310.689 -8.222)" fill="#009c45"/><path d="M352.125,63.777A11.661,11.661,0,0,1,350.076,68a15.991,15.991,0,0,1-5.758,4.6c-.306.1-.613.186-.921.262a18.835,18.835,0,0,0,7.142-8.817c.013-.1.029-.209.043-.313a18.56,18.56,0,0,0,.993-3.385C352.635,60.923,352.369,62.817,352.125,63.777Z" transform="translate(-324.366 -34.718)" fill="#009c45"/><path d="M307.126,33.06a30.244,30.244,0,0,1-3.536,1.669,23.781,23.781,0,0,0-3.059.922l0,0a3.963,3.963,0,0,1-.743-.3,14.735,14.735,0,0,0,9.249-9c1.3-3.561,2.041-7.963.787-11.682a1.328,1.328,0,0,1,.288.538,28.286,28.286,0,0,1,1.093,3.739A16.08,16.08,0,0,1,311.131,27,12.792,12.792,0,0,1,307.126,33.06Z" transform="translate(-262.629 -11.114)" fill="#009c45"/></g><g transform="translate(2647.663 629.663)"><path d="M330.053,53.333a31.354,31.354,0,0,0-11.938-6.507c-4.606-1.3-9.353-1.448-14.072-2.194-.054-.008-.18.134-.122.172l.006,0c-3.771-.9-7.883-.619-11.719-.394a38.889,38.889,0,0,0-17.672,5.415c-10.351,6.25-14.992,18.106-14.95,29.774A31.663,31.663,0,0,0,265.07,97.22a29.276,29.276,0,0,0,13.781,10.911,52.132,52.132,0,0,0,30.3,2.941,53.694,53.694,0,0,0,8.99-2.147,29.9,29.9,0,0,0,11.6-6.536c6.387-5.793,9.525-15.361,9.675-23.753C339.577,69.551,337.31,59.354,330.053,53.333Z" transform="translate(-259.585 -23.412)" fill="#5e2c00"/><path d="M331.685,99.909c-3.159,4.02-6.965,6.5-12.448,8.554l.145-.076a49.493,49.493,0,0,1-9.89,2.255c-1.2.153-2.4.309-3.6.416a53.1,53.1,0,0,1-21.3-1.932c-5.5-1.624-10.72-4.108-14.7-8.311a31.361,31.361,0,0,1-7.986-15.68c-2.47-12.759,2.432-26.968,13.772-33.822a38.079,38.079,0,0,1,16.7-5.017c5.7-.4,12.21-.871,17.3,2.282.192.118.6-.4.421-.526a13.35,13.35,0,0,0-1.42-.909c1.8.368,3.688.475,5.505.727a30.147,30.147,0,0,1,11.486,4.313,28.9,28.9,0,0,1,9.462,9.526c2.066,3.715,2.915,8.332,3.392,12.5C339.633,83.908,337.8,92.134,331.685,99.909Z" transform="translate(-260.326 -24.206)" fill="#f01402"/><path d="M269.549,101.135c-5.467-9.664-8.456-22.1-4.356-32.826,3.041-7.957,9.567-14.18,17.1-18.255a33.375,33.375,0,0,0-6.617,3.024c-11.34,6.854-16.242,21.063-13.772,33.822a31.361,31.361,0,0,0,7.986,15.68q.64.675,1.321,1.292C270.625,102.971,270.069,102.055,269.549,101.135Z" transform="translate(-260.326 -25.972)" fill="rgba(255,255,255,0.42)"/><path d="M348.884,74.2c-.477-4.163-1.326-8.78-3.392-12.5a28.9,28.9,0,0,0-9.462-9.526,30.147,30.147,0,0,0-11.486-4.313c-1.817-.251-3.7-.358-5.505-.727a13.351,13.351,0,0,1,1.42.909c.175.13-.229.645-.421.526-5.087-3.153-11.6-2.679-17.3-2.282a41.048,41.048,0,0,0-9.213,1.716,9.838,9.838,0,0,0,4.172,4.252c3.361,1.844,6.94,1.9,10.674,2.007a.243.243,0,0,1,.17.41c-2.339,2.988-6.35,3.971-9.91,4.594-4.507.79-9.027,1.76-13.62,1.713,2.687,3.153,7.84,3.769,11.7,3.923,5.451.218,10.421-1.341,15.435-3.315a.232.232,0,0,1,.234.063c3.372,4.2,7.047,8.148,10.322,12.424,2.815,3.673,5.171,7.628,5.576,12.345.645,7.521-4.094,14.366-10.357,18.167-7.7,4.674-17.331,4.863-25.853,2.613a48.994,48.994,0,0,1-7-2.432,38.049,38.049,0,0,0,9.885,4.351,53.1,53.1,0,0,0,21.3,1.932c1.2-.107,2.4-.263,3.6-.416a49.494,49.494,0,0,0,9.89-2.255l-.145.076c5.483-2.055,9.289-4.535,12.448-8.554C348.159,92.134,349.995,83.908,348.884,74.2Z" transform="translate(-270.688 -24.206)" fill="rgba(0,0,0,0.1)"/><path d="M343.4,32.8c-3.09,2.575-7.157,2.6-10.986,2.955a21.791,21.791,0,0,1-6.191-.326,15.68,15.68,0,0,0,7.5-5.843,11.487,11.487,0,0,0,2-6.917c-.093-1.823-1.186-4.559-3.046-5.209-.351-.124-.869.652-.762.95,1.657,4.611-2.573,8.4-6.3,10.388a15.151,15.151,0,0,1-6.947,1.587,14.593,14.593,0,0,1-2.431-.226,1.474,1.474,0,0,0-.189-.072,5.153,5.153,0,0,1-1.379-1.345c-.065-.221-.131-.442-.19-.668a33.609,33.609,0,0,1-.968-4.413,19.791,19.791,0,0,1,4.323-10.775c.895-.972,3-1.675,3.346-3.105.377-1.537-2.564-2.147-3.482-2.334-3.857-.791-6.373,1.975-7.526,5.4a14.187,14.187,0,0,0-.711,3.4,21.1,21.1,0,0,0-.185,4.25c.1,1.823.3,3.619.373,5.447.032.79.111,1.713.124,2.653l-1.109,1.273c-4.915.3-9.305-2.514-11.908-6.572a16.263,16.263,0,0,1-2.552-7.428,18.655,18.655,0,0,1,.145-3.951,3.573,3.573,0,0,0,.012-1.974.082.082,0,0,0-.1-.045c-1.32.479-1.828,2.669-2.229,3.852a25.592,25.592,0,0,0-1.362,10.5c.414,4.51,3.917,9.96,8.491,11.46a7.893,7.893,0,0,0,4.1.926c-.457.253-.914.5-1.375.728a58.544,58.544,0,0,1-7.812,3.205,41.193,41.193,0,0,1-7.651,1.621c-1.7.217-3.957,0-5.529.688-.233.1-.673.574-.535.865.732,1.539,4.845,2.319,6.269,2.741a22.866,22.866,0,0,0,9.277.369c5.007-.642,10.5-2.526,14.445-5.857a17.545,17.545,0,0,0,5.849,7.127c3.277,2.464,8.37,5.085,12.581,5.061.261,0,1.035-.8.673-.955-5.007-2.1-8.136-6.35-10.391-11.032,4.225,1.37,9.681.434,13.49-.408a18.563,18.563,0,0,0,7.928-3.678c1.143-.958,3.2-2.633,3.336-4.239C343.839,32.6,343.511,32.7,343.4,32.8Z" transform="translate(-268.645 -7.307)" fill="#5e2c00"/><path d="M343.3,35.29a15.353,15.353,0,0,1-4.18,3.479,23.54,23.54,0,0,1-7.4,2.3,29.6,29.6,0,0,1-10.4.335,5.336,5.336,0,0,1-2.457-.424c.056.427.124.856.177,1.286a21.96,21.96,0,0,0,8.327,10.28,29.874,29.874,0,0,1-8.7-4.131,18.451,18.451,0,0,1-6.53-7.295l.032-.03c-.066-.1-.13-.2-.195-.3a5.935,5.935,0,0,1-1.573.847,33.754,33.754,0,0,1-12.119,4.751,26.558,26.558,0,0,1-8.309.15,20.257,20.257,0,0,1-4.1-1.1,13.228,13.228,0,0,1-3.081-1.2c1.62-.344,3.669-.23,5.149-.421a41.288,41.288,0,0,0,7.623-1.8,53.071,53.071,0,0,0,9.18-4.394c.382-.36.759-.725,1.143-1.085-.155.085-.31.171-.464.257a.1.1,0,0,0-.056-.114A27.722,27.722,0,0,0,301.8,35.6a35.266,35.266,0,0,1-4.122-1.945A14.913,14.913,0,0,1,293,26.588a18.746,18.746,0,0,1-.083-9.381,32.98,32.98,0,0,1,1.274-4.359,1.5,1.5,0,0,1,.878-1.018c-.1.6-.231,1.2-.327,1.808-1.257,8.022,4.508,16.8,12.613,17.545a.625.625,0,0,0-.055.041l-.025.024c.1-.006.2-.01.293-.014,0-.009,0-.021,0-.029.152.012.308.013.462.018a4.408,4.408,0,0,0,2.2-.408,3.729,3.729,0,0,0,.588-.422,5.132,5.132,0,0,1-1.363,3.589,1.125,1.125,0,0,0-.208.378c2.722-1.275,2.38-4.815,2.132-7.475-.167-1.793-.256-3.6-.292-5.4a26.628,26.628,0,0,1,.314-4.42c.02-.736.065-1.473.156-2.212a10.715,10.715,0,0,1,2.015-4.343c1.579-1.94,3.847-1.557,5.892-1.017,3.864,1.02-.028,2.735-1.268,4.074a16.916,16.916,0,0,0-3.537,6.239c-.043.126-.086.262-.128.4a.615.615,0,0,0-.124.176,18.858,18.858,0,0,0-.435,2.046c-.108,4.834,1.009,9.7,4.273,13.3-.708-1.475-1.37-2.936-1.922-4.45a5.326,5.326,0,0,0,.617.234,19.588,19.588,0,0,0,2.971.535c.075,0,.149,0,.225.008a15.886,15.886,0,0,0,9.461-3.491c2.63-1.992,4.948-5.2,4.661-8.508a8.416,8.416,0,0,1,1.6,4.051,9.232,9.232,0,0,1-2.082,6.546,13.711,13.711,0,0,1-7.742,4.8c-.3.135-.6.261-.908.377-.541.2-1.08.513-1.635.754a20.606,20.606,0,0,0,8.6,1.161c3.8-.276,8.244-.336,11.436-2.689A2.861,2.861,0,0,0,343.3,35.29Z" transform="translate(-269.717 -8.072)" fill="#009c45"/><path d="M311.758,61.283c-1.156-.966-3,.889-3.9,1.53-2.84,2.034-6.685,3.244-10.035,4.1a35.007,35.007,0,0,1-10.192,1.127c-1.384-.059-3.172-.214-4.185-1.234-.225.031-.445.068-.657.113a13.231,13.231,0,0,0,3.081,1.2,20.257,20.257,0,0,0,4.1,1.1,26.559,26.559,0,0,0,8.309-.15A33.755,33.755,0,0,0,310.4,64.325a5.464,5.464,0,0,0,1.071-.514C311.991,62.965,312.4,61.821,311.758,61.283Z" transform="translate(-269.717 -30.755)" fill="#009c45"/><path d="M345.918,40.576a19.586,19.586,0,0,1-2.971-.535,5.323,5.323,0,0,1-.618-.234c.065.18.137.357.206.535a14.892,14.892,0,0,0,11.525,7.841,18.12,18.12,0,0,0,9.205-1.642c.726-.34,1.431-.718,2.127-1.112a43.813,43.813,0,0,1-7.3.85,20.605,20.605,0,0,1-8.6-1.161c.556-.241,1.095-.554,1.635-.754.31-.116.611-.242.908-.377a13.711,13.711,0,0,0,7.742-4.8,9.232,9.232,0,0,0,2.082-6.546,8.415,8.415,0,0,0-1.6-4.051c.287,3.312-2.03,6.515-4.661,8.508a15.886,15.886,0,0,1-9.461,3.491C346.067,40.58,345.993,40.579,345.918,40.576Z" transform="translate(-295.714 -16.598)" fill="#009c45"/><path d="M340.056,9.225a1.836,1.836,0,0,1-.155,2.341c-1.221,1.3-2.544,2.312-3.311,4-2.728,6.008-1.837,13.384,2.889,18.051A20.233,20.233,0,0,1,336.8,22.44a18.843,18.843,0,0,1,.435-2.046.614.614,0,0,1,.124-.176c.042-.139.085-.274.128-.4a16.915,16.915,0,0,1,3.537-6.239c1.24-1.34,5.132-3.055,1.268-4.074a12.051,12.051,0,0,0-2.357-.426C339.979,9.125,340.021,9.173,340.056,9.225Z" transform="translate(-292.539 -8.08)" fill="#009c45"/><path d="M343.653,64.346a13.6,13.6,0,0,0,2.39,4.924,18.644,18.644,0,0,0,6.713,5.363c.357.112.714.217,1.073.306a21.96,21.96,0,0,1-8.327-10.28c-.015-.122-.033-.243-.05-.365a21.639,21.639,0,0,1-1.158-3.947C343.06,61.019,343.37,63.226,343.653,64.346Z" transform="translate(-296.18 -30.466)" fill="#009c45"/><path d="M305.1,36.111a35.263,35.263,0,0,0,4.122,1.945,27.726,27.726,0,0,1,3.566,1.075l0,0a4.62,4.62,0,0,0,.866-.348A17.179,17.179,0,0,1,302.87,28.293c-1.513-4.152-2.38-9.284-.917-13.62a1.548,1.548,0,0,0-.335.627,32.98,32.98,0,0,0-1.274,4.359,18.748,18.748,0,0,0,.083,9.381A14.914,14.914,0,0,0,305.1,36.111Z" transform="translate(-277.139 -10.523)" fill="#009c45"/></g><path d="M393.775-23.562c-28.058,0-52.19-1.272-73.777-3.888a322.372,322.372,0,0,1-53.383-10.707,269.994,269.994,0,0,1-41.287-16.1c-12.676-6.109-24.729-12.885-37.491-20.06l-.007,0-.046-.026c-14.369-8.077-29.228-16.429-47.1-25.1a148.228,148.228,0,0,0-19.749-7.608c-7.1-2.242-15.325-4.445-24.437-6.547v-35.389l.087,0L97-149c5.373-.171,10.968-.339,16.63-.5h1373.9c26.255.251,43.71.431,50,.5l.265,0V-32.1l-.007-.007c-.48-.449-4.919-4.562-12.739-10.488-4.832-3.661-10-7.3-15.374-10.813-6.7-4.387-13.729-8.584-20.877-12.475A301.067,301.067,0,0,0,1432.02-89.67a286.017,286.017,0,0,0-35.156-8.239,278.113,278.113,0,0,0-39.171-3.755c-2.277-.055-4.565-.083-6.8-.083a234.917,234.917,0,0,0-33.16,2.239,212.373,212.373,0,0,0-28.268,5.973c-17.641,4.978-33.134,11.626-49.537,18.665l-.01,0-.01,0c-18.6,7.983-37.838,16.237-61.71,22.627a312.846,312.846,0,0,1-39.72,7.89c-7.527,1.01-15.376,1.8-23.327,2.361-8.373.587-17.159.933-26.114,1.028-2.135.023-4.265.034-6.331.034-14.969,0-28.183-.569-40.4-1.741a256.535,256.535,0,0,1-30.433-4.647c-17.766-3.875-31.149-9.059-45.319-14.548l-.012,0c-16.282-6.306-33.118-12.827-58.088-17.876a403.486,403.486,0,0,0-44.426-6.226C845.78-87.588,824.909-88.476,802-88.6c-1.569-.008-2.975-.012-4.3-.012-94.432,0-156.166,17.434-215.869,34.295l-.013,0c-27.628,7.8-53.724,15.171-82.744,20.859-15.6,3.056-30.538,5.328-45.679,6.943-16.954,1.809-33.767,2.763-51.4,2.916C399.235-23.574,396.468-23.562,393.775-23.562Z" transform="translate(1595.5 687)" fill="#4caf50" stroke="#5e2c00" stroke-width="1"/></g></svg>