<svg xmlns="http://www.w3.org/2000/svg" width="157.372" height="174.897" viewBox="0 0 157.372 174.897"><g transform="translate(-643.314 -14.539)"><g transform="translate(229.314 139.539)"><path d="M398.489,62.212c-7.294-6.052-14.405-10.24-23.532-12.826-9.079-2.571-18.436-2.854-27.739-4.324-.107-.016-.355.264-.24.34l.011.008c-7.434-1.765-15.538-1.219-23.1-.776a76.658,76.658,0,0,0-34.834,10.674C268.652,67.627,259.5,91,259.586,114A62.413,62.413,0,0,0,270.4,148.718c6.835,10.2,15.911,16.863,27.164,21.508,18.016,7.434,39.994,10.2,59.732,5.8,6.52-.854,11.5-2.373,17.721-4.232a58.928,58.928,0,0,0,22.858-12.883c12.59-11.419,18.776-30.279,19.07-46.821C417.26,94.18,412.792,74.08,398.489,62.212Z" transform="translate(154.415 -128.232)" fill="#5e2c00"/><path d="M400.058,152.253c-6.228,7.923-13.73,12.811-24.537,16.862l.285-.15a97.554,97.554,0,0,1-19.495,4.445c-2.37.3-4.733.61-7.1.821a104.676,104.676,0,0,1-41.98-3.808c-10.849-3.2-21.132-8.1-28.975-16.383a61.815,61.815,0,0,1-15.741-30.908c-4.868-25.15,4.794-53.158,27.147-66.668,9.718-5.871,21.65-9.1,32.918-9.889,11.228-.783,24.067-1.717,34.1,4.5.379.233,1.175-.782.831-1.037a26.319,26.319,0,0,0-2.8-1.791c3.552.726,7.269.937,10.852,1.433a59.423,59.423,0,0,1,22.641,8.5c7.12,4.541,14.524,11.353,18.652,18.776,4.072,7.324,5.746,16.424,6.686,24.631C415.724,120.713,412.1,136.927,400.058,152.253Z" transform="translate(154.602 -128.031)" fill="#f01402"/><path d="M277.577,150.741c-10.777-19.049-16.668-43.561-8.586-64.7,5.994-15.684,18.858-27.95,33.713-35.982a65.784,65.784,0,0,0-13.044,5.961c-22.353,13.51-32.015,41.518-27.147,66.669a61.816,61.816,0,0,0,15.741,30.908q1.261,1.331,2.6,2.546C279.7,154.359,278.6,152.554,277.577,150.741Z" transform="translate(154.602 -127.584)" fill="rgba(255,255,255,0.42)"/><path d="M410.913,101.585c-.94-8.207-2.614-17.307-6.686-24.631C400.1,69.53,392.7,62.719,385.575,58.178a59.424,59.424,0,0,0-22.641-8.5c-3.582-.5-7.3-.706-10.852-1.433a26.316,26.316,0,0,1,2.8,1.791c.344.255-.452,1.27-.831,1.037-10.028-6.214-22.867-5.28-34.1-4.5A80.912,80.912,0,0,0,301.8,49.957a19.393,19.393,0,0,0,8.224,8.382c6.625,3.636,13.679,3.75,21.04,3.956a.478.478,0,0,1,.334.807c-4.61,5.89-12.516,7.827-19.535,9.056-8.884,1.557-17.793,3.469-26.847,3.377,5.3,6.214,15.453,7.429,23.064,7.733,10.745.43,20.542-2.644,30.424-6.535a.458.458,0,0,1,.461.123c6.646,8.274,13.89,16.06,20.346,24.489,5.548,7.24,10.192,15.035,10.99,24.334,1.271,14.825-8.071,28.318-20.416,35.81-15.179,9.213-34.162,9.586-50.961,5.15a96.575,96.575,0,0,1-13.8-4.794,75,75,0,0,0,19.486,8.577,104.677,104.677,0,0,0,41.98,3.808c2.37-.211,4.733-.519,7.1-.821a97.558,97.558,0,0,0,19.495-4.445l-.285.15c10.807-4.051,18.31-8.938,24.537-16.862C409.483,136.927,413.1,120.713,410.913,101.585Z" transform="translate(157.224 -128.031)" fill="rgba(0,0,0,0.1)"/><path d="M404.638,57.555c-6.091,5.075-14.108,5.132-21.654,5.826a42.953,42.953,0,0,1-12.2-.643c5.991-1.83,12.041-7.306,14.787-11.518a22.642,22.642,0,0,0,3.952-13.635c-.183-3.592-2.338-8.987-6-10.268-.692-.244-1.712,1.285-1.5,1.872,3.267,9.088-5.073,16.559-12.413,20.475A29.866,29.866,0,0,1,355.9,52.793a28.765,28.765,0,0,1-4.792-.445,2.9,2.9,0,0,0-.372-.142,10.156,10.156,0,0,1-2.717-2.652c-.128-.436-.259-.872-.374-1.317a66.241,66.241,0,0,1-1.909-8.7c.475-8.017,4.7-17.089,8.521-21.239,1.763-1.916,5.9-3.3,6.6-6.121.743-3.031-5.055-4.232-6.864-4.6-7.6-1.559-12.562,3.892-14.834,10.635a27.958,27.958,0,0,0-1.4,6.7,41.592,41.592,0,0,0-.365,8.378c.194,3.592.593,7.133.735,10.737.062,1.557.219,3.376.245,5.229l-2.186,2.509c-9.688.583-18.342-4.955-23.473-12.955a32.054,32.054,0,0,1-5.031-14.641,36.764,36.764,0,0,1,.285-7.788c.139-1.265.615-2.687.023-3.89a.162.162,0,0,0-.207-.088c-2.6.945-3.6,5.26-4.394,7.592A50.445,50.445,0,0,0,300.706,40.7c.815,8.891,7.72,19.634,16.737,22.59a15.558,15.558,0,0,0,8.086,1.825c-.9.5-1.8.986-2.71,1.436a115.391,115.391,0,0,1-15.4,6.318,81.2,81.2,0,0,1-15.08,3.195c-3.344.428-7.8-.007-10.9,1.356-.46.2-1.326,1.132-1.055,1.7,1.443,3.034,9.55,4.571,12.357,5.4,5.849,1.733,12.306,1.494,18.286.727,9.87-1.265,20.7-4.978,28.473-11.545,2.271,5.624,6.693,10.405,11.529,14.048,6.459,4.857,16.5,10.023,24.8,9.976.515,0,2.041-1.582,1.326-1.882-9.869-4.131-16.036-12.517-20.482-21.746,8.327,2.7,19.084.856,26.592-.805a36.591,36.591,0,0,0,15.628-7.249c2.253-1.888,6.3-5.19,6.576-8.355C405.512,57.165,404.866,57.364,404.638,57.555Z" transform="translate(156.707 -132.307)" fill="#5e2c00"/><path d="M402.056,60.765a30.262,30.262,0,0,1-8.239,6.857c-4.463,2.5-9.6,3.638-14.585,4.532-5.7,1.021-13.662,2.022-20.493.661a10.518,10.518,0,0,1-4.844-.835c.111.842.245,1.688.349,2.534a43.286,43.286,0,0,0,16.413,20.263c-6.133-1.521-12.245-4.933-17.149-8.143a36.369,36.369,0,0,1-12.871-14.379c.021-.021.042-.038.063-.059-.13-.192-.255-.389-.384-.582a11.7,11.7,0,0,1-3.1,1.67,66.534,66.534,0,0,1-23.889,9.365,52.351,52.351,0,0,1-16.379.3,39.929,39.929,0,0,1-8.085-2.17c-1.438-.507-4.419-1.195-6.073-2.371,3.193-.679,7.233-.453,10.149-.83a81.388,81.388,0,0,0,15.026-3.551c6.5-2.147,12.263-5.409,18.1-8.662.753-.71,1.5-1.429,2.252-2.138-.306.167-.611.336-.915.506a.2.2,0,0,0-.111-.225c-2.169-1.023-4.73-1.4-7.029-2.12-2.876-.9-5.411-2.583-8.125-3.835a29.4,29.4,0,0,1-9.2-13.938c-1.91-5.872-1.387-12.539-.163-18.491a65,65,0,0,1,2.511-8.592A2.966,2.966,0,0,1,307,14.523c-.2,1.19-.456,2.37-.645,3.564C303.882,33.9,315.244,51.2,331.222,52.67a1.229,1.229,0,0,0-.109.08l-.05.047c.192-.012.385-.02.579-.028,0-.018.009-.041,0-.058.3.023.606.026.911.036a8.689,8.689,0,0,0,4.344-.8,7.351,7.351,0,0,0,1.158-.832c-.16,2.72-.8,5.326-2.687,7.075a2.218,2.218,0,0,0-.41.745c5.365-2.514,4.692-9.49,4.2-14.734-.329-3.534-.5-7.091-.576-10.64a52.49,52.49,0,0,1,.62-8.712c.039-1.451.129-2.9.308-4.36a21.12,21.12,0,0,1,3.971-8.561C346.6,8.1,351.07,8.857,355.1,9.92c7.617,2.01-.056,5.39-2.5,8.031a33.34,33.34,0,0,0-6.973,12.3c-.086.249-.169.516-.252.79a1.214,1.214,0,0,0-.245.348,37.163,37.163,0,0,0-.857,4.033c-.212,9.529,1.988,19.129,8.423,26.213-1.395-2.908-2.7-5.787-3.788-8.771a10.5,10.5,0,0,0,1.217.462,38.611,38.611,0,0,0,5.856,1.054c.148.006.294.008.443.016,6.651.021,13.173-2.734,18.648-6.881,5.185-3.927,9.753-10.241,9.187-16.77,1.886,2.11,2.791,5.638,3.152,7.986.69,4.482-1.461,9.438-4.1,12.9a27.026,27.026,0,0,1-15.26,9.47c-.584.265-1.178.515-1.789.743-1.066.4-2.129,1.012-3.224,1.487a40.617,40.617,0,0,0,16.948,2.288c7.49-.544,16.251-.663,22.542-5.3A5.619,5.619,0,0,0,402.056,60.765Z" transform="translate(156.978 -132.114)" fill="#009c45"/><path d="M339.892,61.549c-2.279-1.9-5.922,1.752-7.688,3.015-5.6,4.009-13.177,6.394-19.781,8.089a69,69,0,0,1-20.091,2.221c-2.728-.117-6.253-.422-8.249-2.432-.443.061-.877.134-1.295.222,1.655,1.176,4.635,1.863,6.073,2.371a39.929,39.929,0,0,0,8.085,2.17,52.351,52.351,0,0,0,16.379-.3,66.534,66.534,0,0,0,23.889-9.365,10.771,10.771,0,0,0,2.111-1.014C340.35,64.865,341.165,62.609,339.892,61.549Z" transform="translate(156.978 -126.373)" fill="#009c45"/><path d="M349.4,52.221a38.612,38.612,0,0,1-5.856-1.054,10.5,10.5,0,0,1-1.217-.462c.128.354.271.7.405,1.055,4.042,8.424,13.682,14.643,22.717,15.456A35.717,35.717,0,0,0,383.6,63.98c1.431-.671,2.821-1.416,4.193-2.192-4.7,1.163-9.782,1.339-14.386,1.675a40.616,40.616,0,0,1-16.948-2.288c1.095-.475,2.158-1.092,3.224-1.487.611-.228,1.2-.478,1.789-.743a27.026,27.026,0,0,0,15.26-9.47c2.642-3.465,4.793-8.421,4.1-12.9-.361-2.348-1.266-5.876-3.152-7.986.566,6.529-4,12.843-9.187,16.77-5.476,4.147-12,6.9-18.648,6.881C349.7,52.228,349.55,52.226,349.4,52.221Z" transform="translate(163.557 -129.956)" fill="#009c45"/><path d="M344.91,9.369a3.62,3.62,0,0,1-.307,4.615c-2.406,2.567-5.015,4.557-6.527,7.885-5.378,11.843-3.62,26.381,5.7,35.58-4.018-6.458-5.446-14.267-5.274-22.031a37.149,37.149,0,0,1,.857-4.033,1.215,1.215,0,0,1,.245-.348c.083-.273.167-.541.252-.79a33.341,33.341,0,0,1,6.973-12.3c2.444-2.641,10.117-6.021,2.5-8.031a23.753,23.753,0,0,0-4.645-.841C344.757,9.173,344.841,9.266,344.91,9.369Z" transform="translate(162.753 -132.112)" fill="#009c45"/><path d="M343.9,68.229a26.8,26.8,0,0,0,4.711,9.706,36.75,36.75,0,0,0,13.233,10.572c.7.221,1.408.428,2.115.6a43.286,43.286,0,0,1-16.413-20.263c-.029-.241-.066-.48-.1-.72a42.658,42.658,0,0,1-2.283-7.78C342.732,61.671,343.342,66.023,343.9,68.229Z" transform="translate(163.674 -126.447)" fill="#009c45"/><path d="M310.252,56.93c2.714,1.252,5.249,2.935,8.125,3.835,2.3.718,4.861,1.1,7.029,2.12l0,0a9.106,9.106,0,0,0,1.708-.686,33.863,33.863,0,0,1-21.256-20.683c-2.983-8.184-4.691-18.3-1.808-26.846a3.051,3.051,0,0,0-.661,1.236,65,65,0,0,0-2.511,8.592c-1.224,5.952-1.747,12.619.163,18.491A29.4,29.4,0,0,0,310.252,56.93Z" transform="translate(158.856 -131.493)" fill="#009c45"/></g><path d="M-61.877-11.284a.941.941,0,0,1,.008.132l-.008.058v.033h0a48.958,48.958,0,0,0-.156,6.01q.008.263.025.955.008.222.016.5v.1l.008.091v.124l.049.049a.292.292,0,0,1,.049.091l.016.025a.2.2,0,0,1-.148.272.206.206,0,0,1-.115,0,.268.268,0,0,1-.14-.189h-.008v-.008a.235.235,0,0,1,0-.124.186.186,0,0,1,.074-.115V-3.3a.98.98,0,0,0,.008-.148q.008-.181-.008-.552,0-.239-.025-.848l-.008-.247-.008-.263q-.008-.313-.016-.568-.049-1.622.165-5.1h-.008l.008-.049.008-.049a.271.271,0,0,0,.008-.066l.008-.033.008-.041a.174.174,0,0,1,.058-.082l.008-.008h.008a.074.074,0,0,1,.049,0,.074.074,0,0,1,.049.041l.008.016ZM-64.841-7.57q.058-1.96.156-3.779a17.553,17.553,0,0,1,.14-1.828q.082-.255,3.664-.321,1.12-.025,2.651-.025h1.622q.725-.008.79,5.418.033,2.717-.074,5.434a1.009,1.009,0,0,0,.329-.066q.124-.058.14.148a.412.412,0,0,1-.074.321,3.483,3.483,0,0,1-1.276.346,4.245,4.245,0,0,1-1.4.132q-.082-.025-.025-.5a.37.37,0,0,0,.321-.189q.049-.107,0-3.845,0-.568-.016-1.474l-.008-.362v-.346q-.008-.4-.008-.675-.025-1.474-.025-1.9,0-.041-.033-.321t-.049-.321q-.041-.1-.445-.066l-.156.016-.148.016q-.173.016-.214.016-.091.008-.3.008h-.412q-.585,0-1,.008-1.317.016-1.7.058a1.638,1.638,0,0,0-.173.025.24.24,0,0,0-.115.041.64.64,0,0,0-.074.255l-.173,8.826q.346.058.412.156.074.115-.074.4l-2.882.1q-.091-.346-.025-.436t.4-.082Q-64.915-4.977-64.841-7.57Zm17.866-.338a5.634,5.634,0,0,1-.453,2.692,2.172,2.172,0,0,1-.79.848,2.278,2.278,0,0,1-1.054.2A2.545,2.545,0,0,1-51.66-5.356a8.683,8.683,0,0,1-.568-1.079,3.47,3.47,0,0,1-.247-1.3,5.812,5.812,0,0,1,.576-3.1,2.553,2.553,0,0,1,1.161-.848,3.637,3.637,0,0,1,1.375-.288,2.24,2.24,0,0,1,1.2.288,2.679,2.679,0,0,1,.873,1.079,3.375,3.375,0,0,1,.28,1.26q.025.313.033.725v.708Zm1.013-4.306a3.591,3.591,0,0,0-1.7-1.062,6.837,6.837,0,0,0-2-.272,4.3,4.3,0,0,0-3.3,1.268,6.486,6.486,0,0,0-1.375,4.561,5.665,5.665,0,0,0,.272,1.77,10.021,10.021,0,0,0,.7,1.515,5.132,5.132,0,0,0,1.885,1.976,4.126,4.126,0,0,0,2.462.642,3.174,3.174,0,0,0,1.754-.626,5.338,5.338,0,0,0,1.383-1.82,8.117,8.117,0,0,0,.807-3.787,21.786,21.786,0,0,0-.074-2.338A3.644,3.644,0,0,0-45.962-12.214Zm1.5-2.766a1.881,1.881,0,0,1-.066.181.649.649,0,0,0-.206-.1l-.173-.041q.255-.173.478-.346A.734.734,0,0,1-44.464-14.98Zm-.436.659a.775.775,0,0,0-.156-.1l-.091-.049-.091-.049-.189-.074.362-.239a1.059,1.059,0,0,1,.14.025q.091.016.156.033a.484.484,0,0,1,.124.049q.049.025.041.041l.016-.008A1.539,1.539,0,0,1-44.9-14.322Zm-1.227.313a1.825,1.825,0,0,1-.181-.074l.239-.132.058.016.066.016a3.169,3.169,0,0,1,.346.115,1.129,1.129,0,0,1,.115.058A1.273,1.273,0,0,1-46.127-14.009Zm.115-1.1a.561.561,0,0,1-.025.428l-.041.132a.967.967,0,0,1-.041.115l-.025.049-.016.033-.008.016v.008l-.008.025-.214.1a1.638,1.638,0,0,1,.058-.387A1.115,1.115,0,0,1-46.012-15.1Zm.091-.074a1.179,1.179,0,0,1,.469-.2.837.837,0,0,1-.082.379l-.049.132a.521.521,0,0,1-.049.115.639.639,0,0,1-.033.082l-.008.025-.008.008-.025.066h.008q-.14.091-.3.173a2.171,2.171,0,0,0,.082-.247,1.489,1.489,0,0,0,.058-.28.447.447,0,0,0-.058-.263Zm.189.93-.181-.058.354-.206.115.049.148.058a1.894,1.894,0,0,1,.3.165,1.88,1.88,0,0,1-.338.189.929.929,0,0,0-.214-.132Q-45.633-14.215-45.732-14.248Zm.692-1.169-.016.008v.049q-.008.041-.016.091t-.041.115q-.025.049-.049.107L-45.18-15l-.016.033-.016.025v.008l-.041.074-.263.173q.025-.058.049-.124t.058-.148a1.221,1.221,0,0,0,.082-.445l.082-.008Q-45.147-15.417-45.04-15.417Zm.478.041q-.247.2-.469.354.049-.124.082-.214a.686.686,0,0,0,.025-.156v-.025A2.711,2.711,0,0,1-44.563-15.376Zm.239-.082-.041-.008-.008-.008h-.008l-.025-.008h-.033q-.1-.025-.2-.041a2.665,2.665,0,0,0-.626-.008,1.466,1.466,0,0,0-.7.222,1.2,1.2,0,0,0-.494.683,2.121,2.121,0,0,0-.066.486,1.88,1.88,0,0,0-.263.148q-.091.074-.091.115t.1.016a1.228,1.228,0,0,0,.329-.14,1.752,1.752,0,0,0,.288.115,1.368,1.368,0,0,0,1.342-.329,1.476,1.476,0,0,0,.478-.725.988.988,0,0,0,.025-.486ZM-43.9-1.922l.288.156.461-.321a1.72,1.72,0,0,0,.848.173,2.584,2.584,0,0,0,1.894-.98q1.087-1.194,1.647-4.594a11.109,11.109,0,0,0,.708,1.96A5.847,5.847,0,0,0-37.2-4.145a1.764,1.764,0,0,0,1.12.708A1.833,1.833,0,0,0-34.7-3.89a4.118,4.118,0,0,0,.922-1.219,7.569,7.569,0,0,0,.692-1.836,6.439,6.439,0,0,0,0,2.338,3.241,3.241,0,0,0,.716,1.63,2.429,2.429,0,0,0,1.836.782,2.969,2.969,0,0,0,1.194-.214,3.643,3.643,0,0,0,.889-.51,3.562,3.562,0,0,0,.741-.766l.486-.066L-27.1-4.1l-1.622-1.647-.231.321.1.263a3.827,3.827,0,0,1-.469.642,1.93,1.93,0,0,1-.5.412A.843.843,0,0,1-30.418-4a.966.966,0,0,1-.642-.609,6.271,6.271,0,0,1-.387-1.606q-.222-1.688-.329-6.71,0-.049.5-.2l.041-.445-2.783.165-.107.346.346.066a29.323,29.323,0,0,1-.329,3.5A11.784,11.784,0,0,1-34.7-7.06q-.436,1.12-1.037,1.177-.272.016-.65-.65A9.709,9.709,0,0,1-37.1-8.221a16.192,16.192,0,0,1-.889-4.545q-.008-.222.3-.239l-.025-.436h-2.766l-.041.371.387.412a37.482,37.482,0,0,1-.239,3.812q-.436,3.985-1.474,4.841a1.191,1.191,0,0,1-.4.222,1,1,0,0,1-.338.041.73.73,0,0,1-.313-.074l-.082-.5-.4-.058Zm15.462-7a.785.785,0,0,0-.28-.066q-.1-.008-.206-.008h-.214l.313-.362q.058,0,.14.008l.173.016a2.109,2.109,0,0,1,.379.082A1.953,1.953,0,0,1-28.433-8.921Zm-.832.338a1.608,1.608,0,0,1-.206-.016l.2-.239h.148a2.454,2.454,0,0,1,.4,0,1.391,1.391,0,0,0,.148.025A1.334,1.334,0,0,1-29.265-8.583Zm-.247-1.293a.774.774,0,0,1,.124.5V-9.2a1.13,1.13,0,0,0-.008.14v.066l-.016.033v.074l-.2.181a1.863,1.863,0,0,1-.066-.461A1.352,1.352,0,0,1-29.512-9.876Zm.5-.51a1.094,1.094,0,0,1,.049.469l-.016.173q0,.066-.008.148A.391.391,0,0,1-29-9.489v.033l-.008.082H-29l-.247.313a3.132,3.132,0,0,0,0-.321,1.155,1.155,0,0,0-.041-.338.434.434,0,0,0-.148-.28v.016A1.322,1.322,0,0,1-29.01-10.386Zm.428-.189-.016.016.016.016.008.033v.107a1.836,1.836,0,0,1-.025.445l-.025.091-.214.3a.838.838,0,0,1,.016-.165v-.181a1.268,1.268,0,0,0-.066-.535l.091-.041Zm.51.486q-.082,0-.2.008.214-.288.387-.568a.987.987,0,0,1,.066.354.846.846,0,0,1-.016.231A.73.73,0,0,0-28.071-10.09Zm-.173.156a1.069,1.069,0,0,1,.173-.016.681.681,0,0,1,.148.016q.058.016.058.025l.008-.008a1.62,1.62,0,0,1-.2.535.961.961,0,0,0-.206-.058l-.222-.041q-.1-.008-.231-.025l.3-.4A1.308,1.308,0,0,0-28.244-9.933Zm-.214-.683a2.042,2.042,0,0,1,.4-.091l-.379.585q.016-.173.016-.28a.411.411,0,0,0-.033-.181Zm.527,1.326a1.889,1.889,0,0,0,.263-1,1.239,1.239,0,0,0-.14-.543l-.025-.041h-.124q-.115.016-.231.041a2.442,2.442,0,0,0-.659.214,1.647,1.647,0,0,0-.683.5,1.439,1.439,0,0,0-.3.955v.008a2.268,2.268,0,0,0,.1.576,1.481,1.481,0,0,0-.239.263q-.074.124-.049.165t.115-.016a2.437,2.437,0,0,0,.3-.3,1.273,1.273,0,0,0,.338.033A1.552,1.552,0,0,0-27.931-9.291Zm1.721-4.2q.041,0,.428.041l.4.041.214.016.231.025q1.227.124,1.326.124.058,0,.082.091a.5.5,0,0,1,0,.181.384.384,0,0,1-.058.165q-.041.066-.091.033-.148-.1-.535.082l-.239,7.6a23.943,23.943,0,0,0,2.182-2.4q.807-1,1.861-2.47.156-.231.4-.568l.189-.263.181-.255q.42-.585.659-.906a3.731,3.731,0,0,1,.881-.955A4.229,4.229,0,0,1-16.931-13q-.1,2.124.379,10.423a1.13,1.13,0,0,1,.445.082q.091.082-.008.362l-2.6.4-.173-.535a.365.365,0,0,1,.263-.148q.189,0-.321-6.224-1.5,1.82-3.112,3.557A31,31,0,0,1-24.382-2.77q-1.136.988-1.433.757-.445-.338-.453-4.24A35.33,35.33,0,0,1-26-11.564a4.878,4.878,0,0,0,.082-1.037.613.613,0,0,0-.132-.4.4.4,0,0,0-.288-.124Zm9.9,2.083.016-.025a.075.075,0,0,1,.041-.041.155.155,0,0,1,.049-.008h.008l.016.008a.131.131,0,0,1,.058.074l.016.049.008.033a.146.146,0,0,1,.016.066h.008l.008.041q.148,3.466.247,5.088.016.272.033.585l.016.272.016.263q.033.626.049.873.025.387.049.568a.85.85,0,0,0,.025.156v.016a.177.177,0,0,1,.091.107.356.356,0,0,1,.008.132l-.008.008a.263.263,0,0,1-.123.206.194.194,0,0,1-.124.008.205.205,0,0,1-.181-.263l.008-.025a.292.292,0,0,1,.049-.091l.049-.066a.155.155,0,0,0-.008-.049v-.074l-.016-.2q-.016-.272-.033-.51-.041-.716-.058-.988Q-16-5.7-16.042-6.624l-.016-.4-.025-.4-.033-.815q-.091-2-.181-2.931v-.033l-.016-.058a.592.592,0,0,1,0-.14Zm5.846,5.656-.206-5.837a.655.655,0,0,1,.148-.486q.074-.091.7-.124l2.149-.074a.788.788,0,0,1,.338.1.455.455,0,0,1,.107.494L-7.652-5.7Zm6.546,3.68q.576-2.511.725-3.1.091-.362-1.3-.436a12.047,12.047,0,0,0-1.408,0q.4-5.014.412-7.163a1.56,1.56,0,0,0-.124-.757l-.008-.025-.016-.033a.383.383,0,0,0-.058-.074.545.545,0,0,0-.321-.1q-.988-.008-2.915.033-2.124.058-2.956.132a.762.762,0,0,0-.329.074.618.618,0,0,0-.066.058l-.025.033-.025.033a.613.613,0,0,0-.115.494l.42,7.245-2.388.272a1.214,1.214,0,0,0-.181.2.255.255,0,0,0-.049.148q.008.025.033.107l.008.033.016.049q.016.066.033.124.066.206.206.552l.107.28.107.288a2.92,2.92,0,0,1,.181,1.3l-.214.1v.436l2.717.049V-2.3l-.288-.049q-.082.107-.2,0a.876.876,0,0,1-.206-.354,5.1,5.1,0,0,1-.247-.9q-.1-.494,7.015-.1L-5.7-2.268l-.436.1.148.494h2.528l.049-.4ZM5.093-7.908A5.633,5.633,0,0,1,4.64-5.216a2.172,2.172,0,0,1-.79.848,2.278,2.278,0,0,1-1.054.2A2.545,2.545,0,0,1,.408-5.356,8.683,8.683,0,0,1-.16-6.434a3.47,3.47,0,0,1-.247-1.3,5.812,5.812,0,0,1,.576-3.1,2.553,2.553,0,0,1,1.161-.848,3.637,3.637,0,0,1,1.375-.288,2.24,2.24,0,0,1,1.2.288A2.679,2.679,0,0,1,4.78-10.6a3.375,3.375,0,0,1,.28,1.26q.025.313.033.725v.708Zm1.013-4.306a3.591,3.591,0,0,0-1.7-1.062,6.837,6.837,0,0,0-2-.272A4.3,4.3,0,0,0-.9-12.28,6.486,6.486,0,0,0-2.276-7.719,5.665,5.665,0,0,0-2-5.948a10.021,10.021,0,0,0,.7,1.515A5.132,5.132,0,0,0,.581-2.458a4.126,4.126,0,0,0,2.462.642A3.174,3.174,0,0,0,4.8-2.441,5.338,5.338,0,0,0,6.18-4.261a8.117,8.117,0,0,0,.807-3.787,21.786,21.786,0,0,0-.074-2.338A3.644,3.644,0,0,0,6.106-12.214ZM7.6-14.98a1.882,1.882,0,0,1-.066.181.649.649,0,0,0-.206-.1l-.173-.041q.255-.173.478-.346A.734.734,0,0,1,7.6-14.98Zm-.436.659a.775.775,0,0,0-.156-.1l-.091-.049-.091-.049-.189-.074L7-14.832a1.059,1.059,0,0,1,.14.025q.091.016.156.033a.484.484,0,0,1,.124.049q.049.025.041.041l.016-.008A1.539,1.539,0,0,1,7.168-14.322Zm-1.227.313a1.825,1.825,0,0,1-.181-.074L6-14.215l.058.016.066.016a3.169,3.169,0,0,1,.346.115,1.129,1.129,0,0,1,.115.058A1.273,1.273,0,0,1,5.941-14.009Zm.115-1.1a.561.561,0,0,1-.025.428l-.041.132a.967.967,0,0,1-.041.115l-.025.049-.016.033L5.9-14.33v.008l-.008.025-.214.1a1.639,1.639,0,0,1,.058-.387A1.115,1.115,0,0,1,6.056-15.1Zm.091-.074a1.179,1.179,0,0,1,.469-.2A.837.837,0,0,1,6.534-15l-.049.132a.521.521,0,0,1-.049.115.639.639,0,0,1-.033.082l-.008.025-.008.008-.025.066h.008q-.14.091-.3.173a2.171,2.171,0,0,0,.082-.247,1.489,1.489,0,0,0,.058-.28.447.447,0,0,0-.058-.263Zm.189.93-.181-.058.354-.206.115.049.148.058a1.894,1.894,0,0,1,.3.165,1.88,1.88,0,0,1-.338.189.929.929,0,0,0-.214-.132Q6.435-14.215,6.336-14.248Zm.692-1.169-.016.008v.049q-.008.041-.016.091t-.041.115q-.025.049-.049.107L6.888-15l-.016.033-.016.025v.008l-.041.074-.263.173q.025-.058.049-.124t.058-.148A1.222,1.222,0,0,0,6.74-15.4l.082-.008Q6.921-15.417,7.028-15.417Zm.478.041q-.247.2-.469.354.049-.124.082-.214a.686.686,0,0,0,.025-.156v-.025A2.711,2.711,0,0,1,7.505-15.376Zm.239-.082L7.7-15.466l-.008-.008H7.687l-.025-.008H7.629q-.1-.025-.2-.041a2.666,2.666,0,0,0-.626-.008,1.466,1.466,0,0,0-.7.222,1.194,1.194,0,0,0-.494.683,2.121,2.121,0,0,0-.066.486,1.88,1.88,0,0,0-.263.148q-.091.074-.091.115t.1.016A1.228,1.228,0,0,0,5.62-14a1.752,1.752,0,0,0,.288.115,1.368,1.368,0,0,0,1.342-.329,1.476,1.476,0,0,0,.478-.725.989.989,0,0,0,.025-.486Zm7.6,5.615a1.719,1.719,0,0,0-1.474-2.067,4.971,4.971,0,0,0-1.359-.173,3.727,3.727,0,0,0-.963.1q-.206.049-.263.618a7.914,7.914,0,0,0-.008,1.219q.058.873.181,1.721a6.357,6.357,0,0,0,1.828.066,3.156,3.156,0,0,0,1.326-.387A1.47,1.47,0,0,0,15.344-9.843ZM9.3-13.276q.033-.165.247-.181.066-.008.28-.008h.2q.124,0,.231-.008l.214-.008.214-.016.469-.016q.56-.016,1.021-.016a11.439,11.439,0,0,1,2.141.189q2.495.494,2.783,2.322a4.013,4.013,0,0,1-.148,1.992,3.4,3.4,0,0,1-1.079,1.515,6,6,0,0,1-4.5,1.046L11.5-2.482l.585.181-.066.552L9.333-1.774l-.189-.338.527-.124L9.465-12.329A1.268,1.268,0,0,1,9.3-13.276Zm-.79.955.016-.025a.074.074,0,0,1,.049-.041.182.182,0,0,1,.058-.008v.008h.008l.008.008a.157.157,0,0,1,.074.082l.016.049.008.033q.008.041.016.074l.008.049.016.058H8.782a28.384,28.384,0,0,1,.181,3.2q.008.329.008.766v.733q.008.881.016,1.367Q9-5.677,9-5.339l.008.288.008.272q.016.667.025.922.016.412.033.609.008.107.016.156l.008.025a.21.21,0,0,1,.091.115.3.3,0,0,1,0,.14V-2.8q-.049.173-.148.206a.267.267,0,0,1-.132,0,.219.219,0,0,1-.189-.288l.008-.033a.291.291,0,0,1,.049-.091.287.287,0,0,1,.058-.058v-.14q-.008-.091-.008-.206-.008-.28-.016-.543-.025-.749-.033-1.037-.008-.428-.016-1.622-.008-.593-.016-.947,0-.543-.016-.988a30.445,30.445,0,0,0-.214-3.516h0V-12.1l-.008-.025v-.033a.334.334,0,0,1,0-.148Zm9.633-.947q1.194-.049,3.022-.148a.241.241,0,0,1,.091.28q-.049.173-.412.165l.066,4.57q4.767.263,4.833-.107a12.1,12.1,0,0,0,.058-4.232,1,1,0,0,1-.4-.165.861.861,0,0,1-.124-.387l2.849-.263-.049.338q-.4.124-.387.189A30.182,30.182,0,0,1,28-8.254q.025.757.041,1.7.008.659.025,1.647Q28.1-2.8,28.114-2.26q0,.107.478.156l.041.379-2.948.058L25.676-2q.4.066.469-.189a4.281,4.281,0,0,0,.016-.782q-.016-.716-.066-1.466-.148-2.05-.4-2.017a7.407,7.407,0,0,1-1.293.008q-.255-.016-.757-.058l-.387-.025-.371-.025a9.01,9.01,0,0,0-1.276-.008q-.527.066-.527.313,0,.371.025,3.87.379.058.436.156.074.124-.091.436l-2.816-.041L18.6-2.178q.313.016.346-.181a24.361,24.361,0,0,0,.214-3.771q-.025-1.655-.206-3.59-.066-.7-.156-1.457-.033-.28-.066-.593-.016-.124-.033-.263-.016-.091-.033-.231-.107-.832-.049-.634l-.338-.1ZM25.265.926a.52.52,0,0,1-.041-.371.379.379,0,0,1,.206-.263.384.384,0,0,1,.329,0,.552.552,0,0,1,.263.272.574.574,0,0,1,.049.379.379.379,0,0,1-.206.263.384.384,0,0,1-.338-.008A.552.552,0,0,1,25.265.926ZM32.206-3.66q-.42-.074-.4-1.589a13.559,13.559,0,0,1,.115-1.5A4.027,4.027,0,0,1,33.334-6.8a2.2,2.2,0,0,1,1.029.371,1.442,1.442,0,0,1,.6,1.013q.231,1.474-.988,1.787a3.374,3.374,0,0,1-1,.074q-.206-.016-.436-.049l-.181-.033Q32.288-3.643,32.206-3.66ZM30.847-1.914a14.22,14.22,0,0,0,1.614.148,8.821,8.821,0,0,0,1.844-.1q2.141-.379,2.355-1.943a3.947,3.947,0,0,0-.93-3.573,5.185,5.185,0,0,0-3.911-1.07l-.263-4.215.5-.14-.066-.51-2.379.222-.156.3.461.132-.033,9.765a1.2,1.2,0,0,0,.156.659.6.6,0,0,0,.239.2A2.447,2.447,0,0,0,30.847-1.914Zm6.644-11.049.634.272a83.254,83.254,0,0,0,.008,9.633q.016.148-.189.189l-.074.016-.082.016a.187.187,0,0,0-.115.082A1.011,1.011,0,0,0,37.631-2q.585.016,1.251.074.091.008.239.016l.115.016.107.008.362.025a1.577,1.577,0,0,0,.5-.033.394.394,0,0,0,.255-.239.466.466,0,0,0,.016-.478.3.3,0,0,0-.156-.107l-.255.025A61.119,61.119,0,0,1,40-12.486a.26.26,0,0,1,.115-.181.608.608,0,0,1,.107-.066l.115-.066q.263-.148.14-.3-.206-.263-2.906-.148Zm2.594-1.507a.445.445,0,0,0,.214.222.3.3,0,0,0,.272,0,.3.3,0,0,0,.165-.206.486.486,0,0,0-.033-.3.439.439,0,0,0-.222-.222.3.3,0,0,0-.263-.008.3.3,0,0,0-.165.214A.421.421,0,0,0,40.085-14.47Zm9.831,10.6-.263.181q-3.013.008-5.854.008a12.623,12.623,0,0,1,.016-1.688l.008-.189.016-.189q.008-.214.016-.354a5.88,5.88,0,0,0,0-.626,32.651,32.651,0,0,1,4.273.091.141.141,0,0,1,.041.041q.016.033.033.074a.132.132,0,0,1,0,.066q0,.025-.033.008.4.165.4-.041a17.3,17.3,0,0,1,.107-2.058l-.206-.074-.2.148q-2.207-.14-4.364-.132,0-.239-.008-.675L43.9-9.629v-.354a16.685,16.685,0,0,1,.066-1.671,21.552,21.552,0,0,1,4.817.008q.082.008.1.049v.025l.008.016a.13.13,0,0,0,.033.049.415.415,0,0,0,.3.058,5.883,5.883,0,0,1,.1-2.067l-.272-.066-.049.156q-2.437-.091-5.039-.107a4.12,4.12,0,0,0-.716.016l-.189.016-.173.016q-.2.016-.313.016-.4.189-.4.51-.008.379.033,2.017.025.807.033,1.367.008.807.008,1.49,0,.585-.016,1.35l-.016.667-.008.321-.008.321q-.041,1.54-.016,2.223a1.361,1.361,0,0,0,.585,1.219,1.766,1.766,0,0,0,1.07.148q1.21-.124,2.939-.148a28.113,28.113,0,0,1,2.98.074q.041.008.041.074v.058q0,.025.016.025a.266.266,0,0,0,.222.016q.041-.4.033-2.05ZM-60.441,15.043q-.569.374-.61.208a19.171,19.171,0,0,0-.749-2.011q-.055-.111.582-.153A8.715,8.715,0,0,0-57.751,11.3a3.186,3.186,0,0,0,1.123-2.094,2.14,2.14,0,0,0-.638-1.747A2.583,2.583,0,0,0-59.123,6.7a2.977,2.977,0,0,0-1.678.43,3.337,3.337,0,0,0-1.026.985,4.324,4.324,0,0,0-.666,1.47l.361.1.028.361a8.575,8.575,0,0,1-2.981-.277l.166-.361h.333a5.444,5.444,0,0,1,.707-2.3,5.174,5.174,0,0,1,1.5-1.719,6,6,0,0,1,2.787-1.1,5.444,5.444,0,0,1,2.274.153,5.248,5.248,0,0,1,2.038,1.1,4.332,4.332,0,0,1,1.3,1.914,4.782,4.782,0,0,1,.069,2.635,5.728,5.728,0,0,1-1.553,2.482.659.659,0,0,1-.166.139l-.083.055-.069.055q-.166.125-.125.25.028.1.042.1l.042-.014a.262.262,0,0,1,.083.014,1.116,1.116,0,0,1,.277.083,5.76,5.76,0,0,1,1.151.569,4.84,4.84,0,0,1,1.886,2.233,6.347,6.347,0,0,1-.014,4.285A5.455,5.455,0,0,1-54.27,22.7a6.789,6.789,0,0,1-2.8,1.331,10.949,10.949,0,0,1-4.548-.042,5.385,5.385,0,0,1-2.912-1.581,7.091,7.091,0,0,1-.707-.9q-.055-.083-.111-.18l-.055-.1-.042-.069a1.557,1.557,0,0,0-.153-.222l-.582.042-.139-.305q3-1.511,3.425-1.789.153-.083.208.347l-.18.333a2.821,2.821,0,0,0,.319.569,2.308,2.308,0,0,0,.43.471,2.3,2.3,0,0,0,.652.416,5.614,5.614,0,0,0,3.328.416,3.21,3.21,0,0,0,2.69-2.343,3.212,3.212,0,0,0-.1-2.593,2.991,2.991,0,0,0-1.609-1.29,5.726,5.726,0,0,0-2-.361A2.584,2.584,0,0,0-60.441,15.043Zm8.694-.263A6.138,6.138,0,0,1-50.734,18.3a8.332,8.332,0,0,1-.61,3.12q-1.317,3.231-5.588,4.077a.32.32,0,0,1-.305.208q-.333,0-.333-.374t.333-.374a.3.3,0,0,1,.25.125q4.215-.86,5.283-3.952a8.8,8.8,0,0,0,.527-2.9A5.566,5.566,0,0,0-52.121,15a.184.184,0,0,1-.042-.111.2.2,0,0,1,.083-.153.206.206,0,0,1,.153-.055A.212.212,0,0,1-51.746,14.78Zm10.053-2q.236-.8.763-2.94.513-2.052.6-2.427,0-.055.347-.111a8.483,8.483,0,0,1,.971-.069q.638-.014,1.789,5.366Zm12.064,9.152q-.735.153-1-.277a28.958,28.958,0,0,1-1.442-3.508q-.4-1.082-1-2.746-.208-.6-.527-1.484l-.541-1.511q-2.773-7.779-3.189-8.029a5.484,5.484,0,0,0-2.524-.1q-.735.069-1.373.18a1.861,1.861,0,0,0-.666.166,3.943,3.943,0,0,0-.721,1.5q-.069.222-.166.527l-.166.569q-.222.735-.374,1.179-1.04,3.037-4.687,13.95a3.656,3.656,0,0,1-.6.236q-.263.1.263.915a3.237,3.237,0,0,1,.86-.125,11.065,11.065,0,0,1,3.786.541l.222-.707q.014-.277-.666-.61a36.053,36.053,0,0,1,1-4.437l.18-.513q.069-.18.139-.319a.616.616,0,0,1,.055-.111.539.539,0,0,1,.028-.069l.014-.028.014-.014.014-.014a3.84,3.84,0,0,1,.6-1.387l1.914-.069q1.525-.028,2.26-.055.069-.014.18-.028l.18-.042a.885.885,0,0,1,.416.014q.513.18,1.04,1.387,1.817,4.2,2.385,5.727a1.175,1.175,0,0,1-.444.527q-.208.139.347.818l4.368-1.359Q-29.435,21.893-29.629,21.935ZM-43.551,5.073l-.014-.028a.135.135,0,0,0-.055-.083q-.042-.014-.1-.028h-.014l-.014.014a.181.181,0,0,0-.139.083l-.042.055-.028.055-.028.042-.028.042-.028.055-.055.069.014.014q-.777,1.775-2.2,6.018-.5,1.5-1.082,3.259-.208.652-.43,1.359-.083.263-.18.555-.055.194-.153.471-.111.374-.25.818l-.125.374-.111.361q-.263.86-.374,1.206-.18.541-.277.79a1.009,1.009,0,0,1-.083.194l-.014.028a.417.417,0,0,0-.194.125.319.319,0,0,0-.055.18l.014.014a.344.344,0,0,0,.153.333.767.767,0,0,0,.208.055q.388,0,.388-.319v-.042a.736.736,0,0,0-.042-.153q-.028-.042-.069-.1a.87.87,0,0,1,.055-.166l.083-.277q.125-.361.236-.707.305-.985.43-1.373.319-1.04.86-2.7.652-2,1.262-3.827,1.678-4.992,2.371-6.42l-.042-.028.042.014.014-.014.014-.028.028-.069a.447.447,0,0,0,.055-.194Zm22.27,12.175-.347-9.832a1.1,1.1,0,0,1,.25-.818q.125-.153,1.179-.208l3.619-.125a1.327,1.327,0,0,1,.569.166.766.766,0,0,1,.18.832l-.707,10.067Zm11.024,6.2q.971-4.229,1.22-5.214.153-.61-2.191-.735a20.29,20.29,0,0,0-2.371,0q.666-8.445.693-12.064a2.628,2.628,0,0,0-.208-1.276l-.014-.042-.028-.055a.645.645,0,0,0-.1-.125.917.917,0,0,0-.541-.166q-1.664-.014-4.909.055-3.578.1-4.978.222a1.283,1.283,0,0,0-.555.125,1.042,1.042,0,0,0-.111.1l-.042.055-.042.055a1.033,1.033,0,0,0-.194.832l.707,12.2-4.021.458a2.044,2.044,0,0,0-.305.333.429.429,0,0,0-.083.25q.014.042.055.18l.014.055.028.083q.028.111.055.208.111.347.347.929l.18.471.18.485a4.918,4.918,0,0,1,.305,2.191l-.361.166v.735l4.576.083v-.985l-.485-.083q-.139.18-.333,0a1.476,1.476,0,0,1-.347-.6,8.6,8.6,0,0,1-.416-1.511q-.166-.832,11.814-.166l-.541,2.413-.735.166.25.832h4.257l.083-.666ZM-.051,12.783q.236-.8.763-2.94.513-2.052.6-2.427,0-.055.347-.111a8.483,8.483,0,0,1,.971-.069q.638-.014,1.789,5.366Zm12.064,9.152q-.735.153-1-.277a28.959,28.959,0,0,1-1.442-3.508q-.4-1.082-1-2.746-.208-.6-.527-1.484l-.541-1.511Q4.733,4.629,4.317,4.38a5.484,5.484,0,0,0-2.524-.1q-.735.069-1.373.18a1.861,1.861,0,0,0-.666.166,3.943,3.943,0,0,0-.721,1.5q-.069.222-.166.527l-.166.569q-.222.735-.374,1.179-1.04,3.037-4.687,13.95a3.656,3.656,0,0,1-.6.236q-.263.1.263.915a3.237,3.237,0,0,1,.86-.125,11.065,11.065,0,0,1,3.786.541l.222-.707q.014-.277-.666-.61a36.054,36.054,0,0,1,1-4.437l.18-.513q.069-.18.139-.319a.616.616,0,0,1,.055-.111.538.538,0,0,1,.028-.069l.014-.028.014-.014.014-.014a3.84,3.84,0,0,1,.6-1.387l1.914-.069q1.525-.028,2.26-.055.069-.014.18-.028l.18-.042a.885.885,0,0,1,.416.014q.513.18,1.04,1.387,1.817,4.2,2.385,5.727a1.175,1.175,0,0,1-.444.527q-.208.139.347.818l4.368-1.359Q12.207,21.893,12.013,21.935ZM-1.909,5.073l-.014-.028a.135.135,0,0,0-.055-.083q-.042-.014-.1-.028H-2.09l-.014.014a.181.181,0,0,0-.139.083l-.042.055-.028.055-.028.042-.028.042-.028.055-.055.069.014.014q-.777,1.775-2.2,6.018-.5,1.5-1.082,3.259-.208.652-.43,1.359-.083.263-.18.555-.055.194-.153.471-.111.374-.25.818l-.125.374-.111.361q-.263.86-.374,1.206-.18.541-.277.79a1.009,1.009,0,0,1-.083.194l-.014.028a.417.417,0,0,0-.194.125.319.319,0,0,0-.055.18l.014.014a.344.344,0,0,0,.153.333.767.767,0,0,0,.208.055q.388,0,.388-.319v-.042a.736.736,0,0,0-.042-.153q-.028-.042-.069-.1a.87.87,0,0,1,.055-.166l.083-.277q.125-.361.236-.707.305-.985.43-1.373.319-1.04.86-2.7.652-2,1.262-3.827Q-2.714,6.848-2.02,5.42l-.042-.028.042.014.014-.014.014-.028.028-.069A.447.447,0,0,0-1.909,5.1ZM13.524,4.2a8.634,8.634,0,0,0,2.135-.014q.305-.028.693-.055l.319-.028h.153l.139-.014a5,5,0,0,1,.638-.042q.139,0,.125.444l-.416.153a20.157,20.157,0,0,0,.624,7.072A2.719,2.719,0,0,0,19.473,13.3a6.27,6.27,0,0,0,2.316.5,11.682,11.682,0,0,0,3.037-.222l.721-8.958-.416-.069q-.222-.485.042-.305a14.345,14.345,0,0,0,3.675-.18q.333.194,0,.319a.586.586,0,0,0-.4.374L27.89,16.069Q27.655,19.9,28.9,21.394a1.877,1.877,0,0,0,.915.624.908.908,0,0,0,.333.042.314.314,0,0,0,.18-.055.327.327,0,0,1,.333-.153q.222.042.125.194A27.456,27.456,0,0,1,28.9,24.708h-.471a1.044,1.044,0,0,0-.125-.471,3.7,3.7,0,0,1-2.2-1.567,7.365,7.365,0,0,1-1.054-2.538,12.856,12.856,0,0,1-.361-3.4q-6.337.055-8.278-1.331a5.069,5.069,0,0,1-1.844-3.467,19.9,19.9,0,0,1-.1-4.4,6.939,6.939,0,0,0-.25-2.857L13.5,4.5ZM23.647,18.441q-.014.374.014,1.082a5.565,5.565,0,0,0,.985,2.815,4.643,4.643,0,0,0,2.038,1.789.318.318,0,0,1,.166-.042l.069.014h.055a.317.317,0,0,1,.153.125.279.279,0,0,1,.042.222.253.253,0,0,1-.18.18.41.41,0,0,1-.277.014.255.255,0,0,1-.153-.1.187.187,0,0,1-.042-.18H26.5l-.014-.014a5.7,5.7,0,0,1-3.065-4.826l-.014-.208-.028-.222q-.014-.277-.014-.471,0-.541.18-.624.055-.028.083.18a.779.779,0,0,1,.014.153ZM32.91,4.213q.069,0,.721.069l.679.069.361.028.388.042q2.066.208,2.233.208.1,0,.139.153a.839.839,0,0,1,0,.305.647.647,0,0,1-.1.277q-.069.111-.153.055-.25-.166-.9.139l-.4,12.8a40.325,40.325,0,0,0,3.675-4.049q1.359-1.692,3.134-4.16.263-.388.666-.957l.319-.444.305-.43q.707-.985,1.109-1.525a6.284,6.284,0,0,1,1.484-1.609,7.123,7.123,0,0,1,1.969-.153q-.166,3.578.638,17.555a1.9,1.9,0,0,1,.749.139q.153.139-.014.61l-4.382.679-.291-.9a.615.615,0,0,1,.444-.25q.319,0-.541-10.483-2.524,3.065-5.242,5.99a52.21,52.21,0,0,1-3.91,3.9q-1.914,1.664-2.413,1.276-.749-.569-.763-7.141a59.5,59.5,0,0,1,.458-8.944,8.216,8.216,0,0,0,.139-1.747,1.032,1.032,0,0,0-.222-.666.665.665,0,0,0-.485-.208ZM49.578,7.722l.028-.042a.126.126,0,0,1,.069-.069.262.262,0,0,1,.083-.014h.014l.028.014a.221.221,0,0,1,.1.125l.028.083.014.055a.246.246,0,0,1,.028.111h.014l.014.069q.25,5.838.416,8.57.028.458.055.985l.028.458.028.444q.055,1.054.083,1.47.042.652.083.957a1.432,1.432,0,0,0,.042.263v.028a.3.3,0,0,1,.153.18.6.6,0,0,1,.014.222l-.014.014a.444.444,0,0,1-.208.347.326.326,0,0,1-.208.014.346.346,0,0,1-.305-.444l.014-.042a.491.491,0,0,1,.083-.153l.083-.111a.262.262,0,0,0-.014-.083v-.125l-.028-.333q-.028-.458-.055-.86-.069-1.206-.1-1.664-.042-.86-.111-2.413l-.028-.666-.042-.666-.055-1.373q-.153-3.37-.305-4.937V8.082l-.028-.1a1,1,0,0,1,0-.236Z" transform="translate(732.432 124.603)" fill="#fff"/></g></svg>