<svg xmlns="http://www.w3.org/2000/svg" width="36.097" height="40" viewBox="0 0 36.097 40"><g transform="translate(-3.202)"><g transform="translate(13.69 3.578)"><path d="M28.38,18.435S29.858,8.581,20.5,5.871C20.5,5.871,19.02,15.479,28.38,18.435Z" transform="translate(-20.412 -5.871)" fill="#008218"/></g><g transform="translate(21.153 3.578)"><path d="M32.742,18.435S31.265,8.581,40.626,5.871C40.625,5.871,42.1,15.479,32.742,18.435Z" transform="translate(-32.657 -5.871)" fill="#008218"/></g><g transform="translate(18.813)"><path d="M31.554,14.828S25.212,7.144,31.84,0C31.84,0,38.056,7.474,31.554,14.828Z" transform="translate(-28.818)" fill="#008218"/></g><g transform="translate(3.202 9.002)"><path d="M39.3,29.307C39.3,38.4,31.218,45.77,21.25,45.77S3.2,38.4,3.2,29.307c0-7.265,4.36-13.079,11.723-14.426,3.548-.648,6.325,2.128,6.325,2.128A7.636,7.636,0,0,1,27.2,14.828C34.34,15.82,39.3,21.351,39.3,29.307Z" transform="translate(-3.202 -14.772)" fill="#ff4a44"/></g></g></svg>